<?xml version="1.0" encoding="UTF-8"?>
<svg id="Layer_2" data-name="Layer 2" xmlns="http://www.w3.org/2000/svg" viewBox="0 0 1251.01 479.32">
  <defs>
    <style>
      .cls-1 {
        fill: #fe000f;
      }
    </style>
  </defs>
  <g id="Layer_1-2" data-name="Layer 1">
    <g>
      <g>
        <g>
          <rect class="cls-1" x="522.44" y=".08" width="144.89" height="232.54"/>
          <path class="cls-1" d="M775.35,184.45c16.87,9.36,32.89,20.94,46.46,35.44l9.82,12.64-150.28.14-.02-232.43c14.43-.05,27.89-.6,41.49.2,34.03,2.01,64.09,20.86,80.57,47.88,27.34,44.84,17.3,102.45-28.04,136.13Z"/>
        </g>
        <g>
          <rect class="cls-1" x="913.14" y=".08" width="145.89" height="232.54"/>
          <path class="cls-1" d="M1166.78,184.4c15.48,8.68,36.08,22.51,46.34,36.05,3.41,3.47,7.08,6.21,9.32,12.07l-149.44.11V.07s41.5.35,41.5.35c56.07.47,98.26,50.45,95.34,106.74-1.6,30.9-18.11,59.15-43.07,77.24Z"/>
        </g>
      </g>
      <g>
        <g>
          <path class="cls-1" d="M841.49,397.42c-25.76,48.44-73.86,78.07-128.42,81.32l-31.73.18v-231.26s158.64-.09,158.64-.09c11.7,19.95,17.16,41.64,18.74,64.54,2.22,29.62-3.57,59.04-17.23,85.31Z"/>
          <rect class="cls-1" x="522.44" y="246.6" width="144.89" height="232.54"/>
        </g>
        <g>
          <polygon class="cls-1" points="155.74 377.29 120.85 479.21 0 479.03 82.73 246.56 232.67 246.59 232.66 377.31 155.74 377.29"/>
          <polygon class="cls-1" points="358.6 479.32 323.42 377.36 246.67 377.29 246.66 246.59 396.53 246.57 479.22 478.78 358.6 479.32"/>
          <g>
            <polygon class="cls-1" points="232.68 232.54 86.97 232.57 169.93 .07 232.68 .07 232.68 232.54"/>
            <polygon class="cls-1" points="392.18 232.37 246.65 232.69 246.65 .07 309.35 .08 392.18 232.37"/>
          </g>
        </g>
      </g>
      <g>
        <rect class="cls-1" x="913.14" y="246.6" width="145.89" height="232.54"/>
        <g>
          <path class="cls-1" d="M1076.01,478.72v-230.7l155.52-.52c12.19,20.56,17.27,43.32,18.83,66.48.46,6.84,1.19,13.26-.04,20.09-2.13,40.65-19.99,78.05-50.18,105.43-34.42,31.21-79,42.49-124.14,39.22Z"/>
          <path class="cls-1" d="M1076.01,248.02v230.7c-1.57.24-2.94-1.44-2.94-3.15l-.08-224.79c0-1.55.21-2.17.97-2.72.55-.39,1.34-.04,2.05-.04Z"/>
        </g>
      </g>
    </g>
  </g>
</svg>