<?xml version="1.0" encoding="UTF-8"?>
<svg id="Layer_2" data-name="Layer 2" xmlns="http://www.w3.org/2000/svg" viewBox="0 0 551 90.1">
  <g id="Layer_1-2" data-name="Layer 1">
    <g>
      <path d="M551,11.96v1.74c-1.78,2.7-1.19,6.16-2.6,9.59l-24.8.39-3.66,16.07,18.17.46c-.42,3.7-.82,6.85-2.17,9.89l-18.13.2-3.49,16.1,24.8.47-2.51,11.22-37.1-.11,14.34-66.06,37.16.05Z"/>
      <path d="M443.2,0l-19.6,89.84c-4.53.24-8.06.55-12.02-.27L431.22,0h11.98Z"/>
      <path d="M138.75,0l-19.22,89.7c-4.1.54-7.62.48-12.13.07L126.77,0h11.98Z"/>
      <path d="M283.49,0l-19.05,89.87c-4.17.27-7.76.33-12.16-.09L271.51,0h11.98Z"/>
      <path d="M329.21,77.9l8.12-39.34-17.22,26.43c-2.27,1.04-5.91.47-8.29.13l-5.87-25.87-8.61,38.78c-4.11.22-7.74.29-12.09-.09l14.24-65.84c4.16-.44,7.78-.41,11.88-.01l7.65,37.69,23.7-37.55c4.29-.63,8.21-.47,12.83-.15l-14.28,65.92c-3.85.29-6.84.33-12.06-.09Z"/>
      <path d="M487.09,77.89c-4.38.53-8.38.22-13.09.17l-5.62-17.04c-2.52-.69-5.08-.66-7.83-.14l-3.87,16.93c-4.04.51-7.98.66-12.06-.13l14.27-65.75c8.16-.02,15.46-.43,22.98.29,9.52.9,16.49,7.86,16.04,17.47-.5,10.74-5.16,25.1-17.56,28.14l6.76,20.05ZM485.29,35.09c.79-4.36.52-9.06-3.79-10.73-4.03-1.56-8.71-1.22-12.97-.63l-5.56,25.57c4.15.28,7.9.4,11.59-.42,6.58-1.47,9.52-7.07,10.73-13.78Z"/>
      <path d="M398.97,61.39c-3.45,12.69-14.2,18.75-26.52,17.48-10.63-1.09-18.36-9.35-16.71-20.59,1.48-10.11,3.66-20.44,6.57-30.22,3.61-12.15,14.69-18.64,26.94-17.15,10.67,1.3,17.67,9.93,16.05,20.94-1.43,9.75-3.63,19.63-6.33,29.54ZM375.8,67.61c5.9.28,10.16-2.96,11.58-8.18,2.34-8.54,3.89-17.05,5.74-25.86.58-2.75.25-6.21-1.47-8.3-2.71-3.28-7.07-3.78-10.88-2.61-3,.92-6.08,3.6-7.05,7.45-2.37,9.39-4.45,18.72-6.06,28.26-.85,5.03,2.67,8.98,8.14,9.24Z"/>
      <g>
        <path d="M95,60.99c-3.45,12.94-14.36,19.3-26.99,17.85-10.54-1.21-18.02-9.53-16.37-20.66,1.49-10.09,3.66-20.19,6.48-29.99,2.21-7.69,8.13-13.68,14.28-15.81,8.13-2.82,16.56-2.28,22.94,2.82,5.16,4.12,6.77,11.07,5.73,17.54-1.53,9.49-3.51,18.71-6.06,28.26ZM71.4,67.58c6.29.44,10.82-3.07,12.06-8.68l5.39-24.32c.77-3.46.72-7.4-1.92-9.96-3.03-2.93-7.47-3.17-11.26-1.58-2.78,1.16-5.53,4.22-6.37,8-2.02,9.09-4.3,17.98-5.7,27.2-.78,5.13,2.3,8.96,7.8,9.34Z"/>
        <path d="M14.37,65.35c3.89,3.31,10.16,3.12,13.62-.03,3.19-2.89,4.04-6.72,5.15-10.88,3.98-.62,7.64-.59,12,.02-3.6,16.29-9.91,24.4-26.94,24.28-10.88-.08-19.4-8.06-18.06-19.61,1.17-10.05,3.66-20.07,6.22-29.93,2.05-7.89,8.03-14.39,14.24-16.67,8.37-3.08,17.41-2.45,23.77,2.83,5.75,4.78,6.59,12.95,4.92,19.44-4.33.12-7.56.4-11.46-.17-.32-3.34.58-6.66-1.53-9.27-2.62-3.24-7.09-3.89-10.99-2.77-3.27.94-6.44,4.15-7.31,8.19l-5.74,26.69c-.54,2.5-.16,5.96,2.12,7.9Z"/>
      </g>
      <g>
        <path d="M239.85,60.97c-3.39,12.94-14.34,19.29-26.91,17.88-10.64-1.19-18.04-9.45-16.46-20.72,1.34-9.56,3.64-19.08,6.01-28.47,2.02-8,7.62-14.55,13.93-16.96,8.4-3.22,17.16-2.75,23.82,2.5,5,3.95,6.67,10.8,5.74,17.08-1.43,9.61-3.58,18.98-6.12,28.69ZM216.1,67.54c6.36.53,10.96-2.95,12.21-8.63l5.68-25.88c.65-2.94-.09-6.42-2.24-8.47-2.86-2.72-6.87-3.06-10.59-1.8-2.74.93-5.84,3.81-6.75,7.53-2.27,9.27-4.43,18.46-5.94,27.94-.8,5.05,2.19,8.85,7.63,9.3Z"/>
        <path d="M164.08,67.57c5.43.68,9.63-1.21,11.35-5.54l3.13-7.85c4-.1,7.23-.42,11.43.28-3.6,16.24-9.76,24.42-27.05,24.27-10.79-.1-19.28-8.14-17.94-19.52,1.22-10.34,3.68-20.63,6.44-30.7,2.15-7.85,8.41-14.08,14.57-16.18,8.5-2.9,17.37-2.09,23.62,3.37,5.41,4.73,5.75,12.11,4.82,18.98-4.13.41-7.64.43-11.79-.01-.34-3.23.53-6.3-1.19-8.87-2.29-3.43-6.74-4.22-10.71-3.37-3.52.75-6.93,4.08-7.93,8.37-2.16,9.21-4.26,18.25-5.8,27.59-.76,4.62,2.12,8.58,7.05,9.2Z"/>
      </g>
    </g>
  </g>
</svg>