<?xml version="1.0" encoding="UTF-8"?>
<svg id="Layer_2" data-name="Layer 2" xmlns="http://www.w3.org/2000/svg" viewBox="0 0 240.19 321.55">
  <g id="Layer_1-2" data-name="Layer 1">
    <g>
      <path d="M197.01,120.45c6.32,4.45,10.87,10.5,12.37,18.03,1.08,4.72,1.08,9.28.06,14.02-1.94,9.62-8.5,16.86-17.45,21.03-11.53,4.82-24.23,4.75-35.54-.32-7.15-3.24-11.89-8.63-15.57-15.38-.96,7.23-2.54,13.02-6.26,18.19-7.36,10.53-20.89,14.89-33.29,10.52-3.13-1.14-5.33-2.8-8.48-5.14l-.58,18.65-20.22.1-1.14-6.86-26.52,51.01-13.53.21L0,185.69c8.33-.42,15.85-.41,23.46.01l14.06,29.76,14.3-30.06,19.77-.07.1-44.86c-.63-.81-1.11-.84-1.72-.25-6.12,5.03-13.65,7.49-21.66,7.31-7.6.38-14.75-1.21-21.13-4.9-7.85-4.77-12.81-12.7-13.53-22.06-.49-3.05-.45-5.95.03-9,1.04-12.04,8.99-21.77,20.63-25.12,4-1.25,7.86-1.9,12-1.58,4.04-.3,7.74.36,11.29,1.48,9.39,2.58,16.41,9.66,19.18,19.12.8.75,1.58-.09,2.42-.9l15.46-17.04-23.58-26.88,26.18-.32,11.2,12.75c2.86-1.64,4.13-3.85,6-5.98.94.06,1.35-.04,1.43-1.43,2.17-1.49,3.06-3.52,5.31-4.68l4.41-4.88c1.67.94,1.65.27.63-1.15,1.85-1.82,3.17-3.39,4.34-5.47l1.34-5.83c-.83-1.45-1.44-3.05-.06-4.01.44,1.68.31,2.87,2.02,3.36l.36,6.77c-.28,1.43-1.06,2.37-1.14,4.33,2.13.32,3.87-1.05,6.22-1.41,2.2-1.17,4.06-2.49,6.89-3.02.79-.67-.18-1.15.33-2,1.18.99,1.63,2.54,3.65,2.91,1.12,1.16,2.23,1.74,2.93,3.06-1.54-.44-2.29-1.44-3.98-1.62-3.5.99-6.76,1.81-9.97,3.54-3.18,2.1-6.52,3.48-8.69,6.43-1.37,1.42-1.92,3.15,0,4.77-.88,3.33-2.71,5.86-4.78,8.56.66,1.36,1.37,1.76,1.86.26.45-1.27,1.41.03,2.67,0-.55-1.09-1.31-2.26-.04-2.79,1.64-.77,2.84-1.8,4-.61-1.52.76-1.92.96-1.5,2.19-1.2.28-1.49.97-1.69,2.28-.51.8-.85.44-1.79.12-1.49,2.66-3,4.72-4.72,7.16-1.22,1.07-2.36,1.95-3,3.58l28.08,30.64c.47.6.28.9-.47,1.27l-26.07-.26-15.25-16.97-14.78,17.03-14.89.28-43.65.1c-.75,6.19,2.81,11.46,8.94,12.71,2.36.59,4.56.3,6.85.28,2.99-.79,5.31-2.41,7.21-5.37l33.81-.15c1.07.52,1.31,1.33,1.25,2.42-.15,1.53.22,2.52.51,3.56,3.06-3.6,6.59-5.8,10.96-7.04,13.36-3.3,26.96,3.25,32.94,15.68.53.84.7,1.71,1.88,2.28.66-9.99,5.03-17.76,12.62-23.21,5.52-3.81,11.82-6,18.67-6.48,3.73-.8,7.26-.26,10.99.23,5.76.81,11.03,2.64,15.93,5.9ZM133.16,50.26c0-.28-.22-.5-.5-.5s-.5.22-.5.5.22.5.5.5.5-.22.5-.5ZM132.16,55.25c0-.28-.22-.5-.5-.5s-.5.22-.5.5.22.5.5.5.5-.22.5-.5ZM125.18,61.23c0-.28-.22-.5-.5-.5s-.5.22-.5.5.22.5.5.5.5-.22.5-.5ZM119.19,67.21c0-.28-.22-.5-.5-.5s-.5.22-.5.5.22.5.5.5.5-.22.5-.5ZM116.19,71.2c0-.28-.22-.5-.5-.5s-.5.22-.5.5.22.5.5.5.5-.22.5-.5ZM114.19,72.2c0-.28-.22-.5-.5-.5s-.5.22-.5.5.22.5.5.5.5-.22.5-.5ZM120.18,73.2c0-.28-.22-.5-.5-.5s-.5.22-.5.5.22.5.5.5.5-.22.5-.5ZM125.18,74.19c0-.28-.22-.5-.5-.5s-.5.22-.5.5.22.5.5.5.5-.22.5-.5ZM112.2,76.19c0-.28-.22-.5-.5-.5s-.5.22-.5.5.22.5.5.5.5-.22.5-.5ZM114.19,76.19c0-.28-.22-.5-.5-.5s-.5.22-.5.5.22.5.5.5.5-.22.5-.5ZM119.19,78.18c0-.28-.22-.5-.5-.5s-.5.22-.5.5.22.5.5.5.5-.22.5-.5ZM126.17,78.18c0-.28-.22-.5-.5-.5s-.5.22-.5.5.22.5.5.5.5-.22.5-.5ZM121.18,84.17c0-.28-.22-.5-.5-.5s-.5.22-.5.5.22.5.5.5.5-.22.5-.5ZM58.73,107.15c-2.09-7.71-9.56-10.54-16.36-8.32-4.07,1.52-7.33,4.34-7.45,8.57l23.8-.25ZM187.63,145.61c0-7.45-6.04-13.48-13.5-13.48s-13.5,6.04-13.5,13.48,6.04,13.48,13.5,13.48,13.5-6.04,13.5-13.48ZM118.93,156.71c0-7.48-6.07-13.55-13.57-13.55s-13.57,6.07-13.57,13.55,6.07,13.55,13.57,13.55,13.57-6.07,13.57-13.55Z"/>
      <path d="M151.19,260.52c.44.62.65,1.12.72,1.65l-.1,57.38-20.47.09-.56-6.62c-2.7,4.51-6.92,6.48-11.6,7.84-12.12,2.61-24-2.37-30.64-12.52-8.59-13.42-7.08-30.4,4.28-42.24l-21.08-.47-.06-58.04c.37-.54.75-.86,1.53-1.06l19.54.31-.18,59.06c.05.2,1.24-.72,2.17-1.14,3.77-3.05,8.16-5.14,13.38-5.73,3.09-.75,6.05-.74,9.11,0,5.02.66,9.09,2.65,13.1,6.28,1.04-1.22.6-2.45.83-4.61l20.02-.17ZM131.8,290.1c0-7.48-6.07-13.54-13.56-13.54s-13.56,6.06-13.56,13.54,6.07,13.54,13.56,13.54,13.56-6.06,13.56-13.54Z"/>
      <path d="M133.64,208.93c-5.37-.57-9.43,2.05-10.94,6.55l-1.09,4.79-.15,32.9-20.71-.32.1-58.61,20.32-.06c.63,1.97.33,3.4.45,5.26.11,1.32.27,1.71,1.22.83,3.58-4.57,8.42-7.59,14.34-7.8,2.41-.41,4.65-.41,7-.02,7.65.2,14.01,4.67,16.83,11.9,1.47,3.88,1.8,7.86,2.26,11.96l-.11,36.62-20.87.18-.39-33.81c.1-2.14-.21-4.03-1.16-5.76-1.1-2.66-3.44-4.53-7.1-4.6Z"/>
      <g>
        <path d="M218.66,41.87c-4.05-3.37-8.39-4.36-13.13-3.47-1.91,1.53-2.48,3.92-1.92,6.13.18,1.55-1.11,2.66-.61,4.55-.28,1.16-1.73,1.23-2.98,1.88-.79-.86-1.62-1.25-2.76-.63-2.62-1.17-4.78-2.84-6.9-4.86-.82-2.07-1.64-3.85-1.97-5.94.02-1.73.78-3.18,2.73-4.26,1.91.9,3.34,1.97,5.53,1.43.7.67,1.08,1.05,1.63.49.19-.1.48-.52.91-1.12,1.36-.74,1.6-1.81,1.31-3.13,1.16-1.62,1.28-3.64,2.67-5.17,1.5-.32.13-1.73-.05-3,.97-1.71,1.62-3.15,1.88-5,1.59-1.77.41-3.88,1.62-5.99,1.34,4.89-.28,9.84-2.09,15-.26,1.48-1.38,2.51-.37,3.8-1.21.4-1.87.73-1.4,1.63-.17.6-.72,1.23-1.65,1.52-1.17.53-1.28,1.73-.79,3.25-1.21,1.78-3.14,1.97-5.29,1.85-1.42.03-2.31.4-2.05,1.9,2.34,2.95,5.23,4.16,8.63,3.98-1.31-3.16-.74-5.77.74-9.04,1.23-2.34,4.11-3.07,6.67-2.85,2.27-.87,4.01-.2,5.58,1.29,2.38.57,4.52,1.61,6.16,3.65,1.87.33,2.26,1.89,1.58,3.27,0,1.13-.21,2.16-1.07,2.82-1.02.4-2.49.51-3.35-.72l2.44-1.01c.31-.87-.08-1.86-1.72-2.25Z"/>
        <path d="M201.12,101.65c.19,2.5-2.57,3.72-3.97,3.47-.34-2.45-3.07-1.41-3.06-3.49-.29-1.87-2.02-1.77-3.09-2.57,2.15-1.3,3.51.29,5.15,1.45-.26,1.06-.29,1.64.38,2.08.35.14,1.35.02.7-1.63.75.37.79.58,1.6.66.39.97-.12,2.03,1.24,1.96-.08-2.13-.2-3.54.93-5.4-1.94-.94-2.45-2.96-1.85-5.17-1.07-1.08-1.71-2.01-2.03-3.3-.65-3.42-2.52-5.8-4.68-8.25l1.59-4.6c-2.23-1.12-3.58-2.88-4.8-5.08-.9-.93-1.57-1.65-.72-3.14.15-.38.4-2.04,2.19-1.69.78-1.91,2.85-2.82,5.45-2.19.95-.82,1.92-1.19,2.19-1.02,1.7.19,2.41,1.29,2.15,2.94-.67,1.75-.27,3.23.04,5.05l3.4,6.94c.66,1.79,2.31,2.24,3.9,1.95.71,1.23,1.3,1.87.06,2.53-2.48.08-5.01-.41-6.88-2.23.3-1.41-.1-1.93-.98-2.91.5-.33,1-.68,1.04-.86.24-.73,0-1.7-1.07-1.39.28,2.11-.48,2.48-.96.88-.6-1.37-2-2.23-1.25-4.01-.36-1.05-.9-1.81-.93-2.95.43-1.52-.22-2.31-1.68-1.76-1.58-.08-2.95.09-3.24,1.8,1.94,1.97,3.12,3.65,3.95,5.52-1.78,2.48-.6,5.08,1.16,7.34-.21,1.81.27,2.95,1.34,3.81,1.05,2.04.94,4.5,2.61,6.27,1.48,2.55.84,5.75.12,8.97ZM191.07,70.21c0-.28-.22-.5-.5-.5s-.5.22-.5.5.22.5.5.5.5-.22.5-.5Z"/>
        <path d="M142.18,39.9c-1.24-2.18-.19-4.71,1.79-6.05,1.93.19,2.9-.89,3.72-1.73,1.49,1.31,1.92.04,1.42-1.1l-1.99-10.02c1.65.57,2.41.84,1.24-.31,1.9-.34,3.76.46,5.91,1.19l5.62,2.16.68,4.77c-.54,2.07.07,3.81,1.78,4.83.85.6.83,1.09-.36,2.09.13,1.26.85,1.44,1.54-.14.35.29.55,1,1.38,1.31-.08-1.88.86-2.89,1.25-1.04,1.07.57,2.57-.53,3.84-1.13,1.36-1.16.66-2.51,0-4.04-1.99-2.34-2.24-4.91-.6-7.79-.51-1.66,1.35-.98,2.64-1.04-.13-1.47.23-2.08,1.75-2.96-.18,1.99-1.56,3.92-3.66,4.65-.66,1.62-.69,2.19,0,3.52,1.19,1.41,2.49,2.65,3,4.75-.66,1.08-.45,1.89.08,3.18-.65.74-1.38.62-1.63.5-.8.59-.6,1.35-.68,1.87-1.87,1.85-4.15,3.01-6.75,1.56-1.75.11-2.63-.99-4.11-2.03-1.14-.99-1.25-2.5-2.69-3.04l-.2-3.7c1.24-1.14.67-2.14-.25-3.29-1.81-.14-3.13-.5-4.72-1.21-1.41,1.07-1.23,2.46-1.14,4.2-.08.88.35,1.48-.34,2.18.21.49-.29.42-1.82.51.32,2.15-.4,3.36-2.06,4.08-1.31.37-2.05,1.15-2.19,2.17-.54,1-.12,1.94.81,3.01.1,1.39.17,2.55-1.1,3.04-.49-1.87-.23-3.48-2.17-4.95ZM154.44,23.84c0-.45-.36-.81-.82-.81s-.82.36-.82.81.36.81.82.81.82-.36.82-.81ZM152.13,24.34c0-.28-.22-.5-.5-.5s-.5.22-.5.5.22.5.5.5.5-.22.5-.5Z"/>
        <path d="M173.11,101.99c-1.24-1.04-1.94.03-2.71.76-.5-1.25-.09-1.89-.78-2.13-.6-.33-1.24-.15-1.8,1.04-1.09-.3-1.49-1.17-1.94-1.88-1.1,1.31-2.31.76-3.52,1.23-2.13-1.34-4.04-2.86-5.14-5.03,1.22-1.04.76-1.65-.45-.58-1.24-1.14-1.94-2.66-2.14-4.57-.45-1.59-.91-3.09-2.01-4-1.31.96-1.91.18-2.13-1.24,2.35-.51,3.36-1.8,3.84-3.92.77-1.95,1.9-3.28,3.26-4.74,1.02.74,2.13.53,3.72-.53.86,2.04,1,3.47,2.47,4.59.61,1.05,1.06,1.93.53,3.3-.14.28-.78,1.3-2.15,1.43-.56-1.61-1.45-2.73-2.78-1.99-2.08,1.71-2.18,3.69-1.36,5.97,1.01,3.94,3.92,6.69,7.4,8.46.15,1.1.63,1.5,1.2,1.47.67.29,1.16.12,1.85-1.02,1.42,1.33,3.18,1.42,5.14,2.91,1.05-1.22,3.16-1.31,4.5-.46l-1.51,1.56c-.41-.38-.73-.84-1.15-1.06-.62,1.25-1.5,1.72-2.34.43ZM163.95,99.13c0-.45-.37-.82-.82-.82s-.82.37-.82.82.37.82.82.82.82-.37.82-.82Z"/>
        <path d="M111.26,46.77c-.33,1.15-.04,2.08.81,2.07-3.84,1.26-7.94.3-11.47-1.72-1.25-1.38-.29-3.22,1.19-1.62,1.32,1.27,3.05.56,4.15,1.8,1.81-1.45,3.6-1.02,5.32-.53Z"/>
        <path d="M112.06,48.85c.36-1.23.31-2.28-.81-2.07.87-.17,1.33-.63,1.98-1.11,1.22.17,2.2-.05,2.89-.75.2-1.66.81-.92,2.31-.17.26-1.85,1.2-3.08,3.07-3.55,1.46-.67,2.1-2.39,4.18-2.45.94-.66.28-1.77-1.5-1.37,1.41-1.13,2.18-2.22,2.05-4.12-.07-1.17-1.35-1.83-2-3.35,1.28.48,2.22,1.61,3.48.37,1.54,1.57,2.08,3.87,1.52,6.52l-3.29,4.29c.42,2.17-1.22,2.35-1.38-.3-1.64,2.85-2.55,5.48-6.22,6.27-1.14,1.12-2.58,1.46-4.36,1.42-.75.86-1.52.87-1.92.37Z"/>
        <path d="M146.29,84.57c-.26,1.31.5,1.43,1.26.02.63,1.18,1.98.76,2.74,1.82-1.87.4-3.03.05-3.62,1.21-1.95-1.51-2.86-2.7-2.65-4.6-1.76-1.78-1.11-4.09-.8-6.32-.3-1.24-.11-2.2.4-2.73,1.28-.26,2.66-.13,2.82,1.66-1.13,1.41-1.67,2.53-2.59,4.13.54,1.16,1.3,1.1,1.33-.04-.11-1.65.56-1.52,1.32.06-.87.95-1.44,1.61-1.37,2.43-.46.97.7,1.41,1.15,2.39Z"/>
        <path d="M185.6,13.88c.82.76.8,2.05.31,4.02-2.86.44-5.09-.21-7.99-1.09-.57-1.21.16-1.98.89-2.43.64-.86,1.57-.5,2.64.34.49-.17.85-.48,1.12-.69.44.09.85.3,1.49.82.5.73.88.42,1.54-.98Z"/>
        <path d="M214.05,79.7c.28,1.13-.94,1.29-2.13.75-.92.59-1.42,1.17-2.23,2.23-1.14-.35-1.76-1.63-.68-2.48.18-.55.84-.84,2.14-.3.95-.32.93-1.77,1.81-1.33.24,1.02.65,1.23,1.08,1.13Z"/>
        <path d="M214.05,79.7c.01-.99-.65-1.17-1.08-1.13.52-1.35,1.53-1.97,2.84-2.36,2.95-.6,4.32-3.19,5.81-5.46l4.43-3.74,12-11.15c.8-.21,1.49.07,2.13.99-1.05,1.03-1.88,1.46-2.41,2.55l-7.76,5.37c-2.58,1.04-3.72,3.53-5.09,5.86l-5.23,4.72c-1.32.24-2.51.82-2.63,2.62-1.14.46-1.9,1.58-3.02,1.74Z"/>
        <path d="M184.52,100c-.84,1.24-1.89.56-2.97.67-.48.94-1.02,1.28-1.74.48-.14-.05-.55-.47-.73-1.02.08-.5.51-.88,1.26-1.14,1.51-.44,2.88-.15,4.68-.43l1.55.98c1.1.3,1.05-.77,1.97-2l2.57,3.97c-1.25-.22-1.81-1.08-3.21.11-1.33-.6-2.23-1.61-3.39-1.62Z"/>
        <path d="M147.26,72.38c-.45,1.71-1.18,1.53-2.48.52.02-1.47-.17-3.13.2-4.21,1.71-.91,2.06-2.52,3.99-1.95.48,1.56.1,2.34-.56,3.23-.55.42-.94.9-1.15,2.41Z"/>
        <path d="M97.06,40.59c-.01,1.98,1.57,1.94,2.41,3.47-.93,1.39-1.86-.12-2.53-1.01-.27-1.75-1.09-3.17-2.12-4.49-.18-.65-.22-1.17.03-1.71.3-.5.86-1.14,1.69-1,.04,1.46.95,2.3.53,4.73Z"/>
        <path d="M98.84,31.93c-2.02.56-3.13.78-3.69-.75,1.8-.66,2.81-1.36,3.62-2.41,1.17,1.08,1.35.29,1.27-1.1.71-.4,1.43-.21,1.35-.25.93.57,1.02,1.07.94.91.15,1.59-.76,1.87-1.86,1.73-.17.93-.33,1.68-1.64,1.87Z"/>
        <path d="M201.3,12.91c.96,2.73-.74,2.43-1.45,1.2.06-1.75.34-2.51,2.03-2.26.4-1.25.94-.94,1.59-.1,1.14,1.13-.01,1.21-2.18,1.16Z"/>
        <path d="M176.98,16.84c-1.49,1.16-2.27,1.48-2.88.52l1.5-1.51c.76-.2,1.72.06,1.38.99Z"/>
        <path d="M127.21,23.73c-2.09-.37-2.49-1.95-1.77-4.08-1.38-1.07-2.1-2.86-.49-3.93.29,1.85.05,3.01,1.54,3.93-.85,1.97-.18,2.79.72,4.08Z"/>
        <path d="M120.11,2.9c-1.94,1.29-1.91.37-2.41-1.09-1.19,1.2.09,2.42-.9,4.19-1.46-1.5-.51-3.3.46-5.46.58-1.27,1.08-.09,1.01,1.34,1.61-.19,2.36.64,3.2,2.06-.58,1.27-1.32,1.45-1.37-1.04Z"/>
        <path d="M108.88,26.8c-.52.09-.87-1.28-1.47-.7-1.07,1.38-1.52.09-1.13-1.15,1.26-.43,2.21-.16,2.6,1.85Z"/>
        <path d="M118.5,25.75c1.06.56.6,1.1-.55,1.21-2.33-.15-2.03-1.36.55-1.21Z"/>
        <path d="M133.24,36.55c-1.45,1.33-1.95,1.52-2.37.13.72-1.32,2.04-1.25,2.37-.13Z"/>
        <circle cx="123.68" cy="11.87" r=".81"/>
        <circle cx="95.22" cy="34.3" r=".81"/>
        <circle cx="121.68" cy="6.89" r=".81"/>
        <circle cx="121.18" cy="27.33" r=".81"/>
        <circle cx="197.56" cy="13.37" r=".5"/>
        <circle cx="133.66" cy="39.29" r=".5"/>
        <circle cx="97.72" cy="33.28" r=".52"/>
        <circle cx="113.7" cy="26.33" r=".5"/>
        <circle cx="103.71" cy="26.33" r=".5"/>
        <circle cx="126.67" cy="25.33" r=".5"/>
        <circle cx="111.7" cy="25.33" r=".5"/>
        <circle cx="124.68" cy="14.37" r=".5"/>
      </g>
    </g>
  </g>
</svg>