<svg width="378" height="302" viewBox="0 0 378 302" fill="none" xmlns="http://www.w3.org/2000/svg">
<path d="M196.325 124.859L197.66 137.979L200.444 162.299L201.874 171.573C201.833 173.135 200.319 173.72 199.477 172.747C198.994 172.187 198.639 170.431 198.447 169.659L196.713 162.299C194.748 153.051 193.538 143.816 192.3 134.459L191.538 126.459C191.487 125.381 191.541 123.32 190.7 122.536C188.361 120.354 186.668 125.707 186.015 127.099C182.853 133.839 179.161 142.063 174.108 147.551C172.271 149.551 166.463 153.755 164.693 149.487C163.73 147.167 165.036 143.736 165.817 141.499C168.146 134.824 171.295 128.155 177.125 123.823C178.61 122.715 180.21 121.727 181.925 121.023C183.052 120.562 184.777 120.232 185.541 119.33C186.073 118.709 187.068 116.155 187.455 115.259C188.249 113.419 190.14 109.384 190.233 107.579C190.309 106.056 190.047 105.407 189.938 104.059V100.859L189.605 96.6994V91.8994L189.285 86.7794V50.6194L189.605 46.1394V41.9794L189.925 37.1794L190.597 27.2594V24.0594L191.26 16.3794L192.514 3.89943C192.809 0.478628 195.458 -0.404572 196.866 0.481828C198.223 1.33623 197.353 5.05143 197.285 6.45943L195.698 24.3794L195.337 31.7394L195.045 35.5794L194.713 41.3394V45.1794L194.405 48.6994V56.3794L194.085 61.8194V75.5794L194.405 81.0194V89.0194L194.725 94.1394C194.732 95.5922 194.636 96.2194 195.045 97.6594C195.429 95.5314 197.292 91.5666 198.181 89.3394L205.151 72.6994C212.629 55.1666 223.685 31.0162 235.561 16.3794C240.572 10.2066 247.602 3.25943 255.525 1.22103C258.082 0.565027 260.933 -0.0365718 263.525 0.699428V1.33943L259.045 1.98263C256.601 2.51383 254.172 3.57943 252.005 4.81783C243.657 9.59223 236.383 19.2082 231.308 27.2594C221.436 42.917 214.165 59.8802 206.933 76.8594L198.949 96.3794L195.33 105.659V108.539L195.951 117.499C196.044 118.479 195.865 120.159 196.332 120.952C196.873 121.867 199.724 123.125 200.805 123.797L212.005 131.154C224.21 139.275 238.761 148.354 253.285 151.275C258.783 152.383 261.839 152.443 267.365 152.379C272.357 152.319 278.789 150.421 283.365 148.45C284.565 147.935 287.842 146.088 288.927 147.179C289.657 147.915 288.997 148.859 288.437 149.442C287.263 150.671 284.62 152.027 283.045 152.77C275.273 156.44 268.057 156.635 259.685 156.539L254.245 155.941C239.877 153.941 225.897 146.171 214.245 137.842L196.325 124.859ZM278.597 95.0162C279.807 94.7154 280.709 94.6578 281.73 95.5186C283.647 97.1346 283.289 100.063 281.413 100.907C277.324 102.741 275.295 97.0578 278.597 95.0162ZM260.325 122.299C261.951 120.648 263.029 115.186 264.037 112.699C264.476 111.624 265.055 110.091 266.117 109.506C267.161 108.933 268.524 109.224 269.196 110.213C270.556 112.2 270.114 117.055 271.157 118.779C273.148 122.056 276.111 119.989 277.061 117.179C277.305 116.463 277.282 115.688 277.285 114.939C277.295 112.971 277.001 107.871 277.852 106.344C278.61 104.975 280.636 105.071 281.391 106.344C281.833 107.093 281.765 108.325 281.765 109.179V124.539C281.769 126.469 281.89 130.824 284.325 131.317C286.546 131.765 289.052 127.499 289.81 125.819C291.164 122.811 292.639 119.874 292.645 116.539C292.649 114.303 292.428 108.827 293.25 106.965C293.97 105.346 296.188 105.275 296.889 106.965C297.298 107.941 297.129 113.791 297.058 115.259C297.119 118.904 296.463 122.472 297.058 126.139C297.113 126.978 297.285 129.595 298.473 129.595C300.028 129.595 301.205 125.755 301.666 124.539L307.724 106.939C308.796 104.658 310.786 101.221 313.724 103.583C314.13 103.909 314.386 104.248 314.629 104.706C315.791 106.895 315.657 111.189 315.685 113.659L316.005 118.459C316.012 123.013 315.721 128.447 316.524 132.859C316.754 134.146 317.391 137.25 319.205 137.003C320.959 136.763 322.703 132.77 323.301 131.259C325.941 124.597 326.082 118.104 328.166 111.739H329.126C329.612 113.938 328.735 116.578 328.294 118.779C327.337 123.535 326.233 129.474 324.226 133.819C323.337 135.752 321.49 138.84 319.205 139.183C315.948 139.672 314.255 135.304 313.445 132.859C311.903 128.197 311.532 124.287 311.525 119.419L310.885 109.179C308.94 110.978 307.897 113.483 306.917 115.899L301.839 129.019C300.293 132.024 297.445 133.557 295.093 130.293C293.97 128.741 293.669 126.229 292.645 124.219C292.069 127.282 288.818 132.223 285.925 133.471C285.138 133.813 284.213 133.855 283.365 133.807C281.097 133.675 280.053 132.203 279.138 130.299C277.615 127.144 277.285 124.139 277.285 120.699C276.69 121.259 276.108 121.874 275.365 122.245C274.604 122.623 273.641 122.648 272.805 122.607C267.842 122.347 267.983 117.333 265.765 114.299C264.13 117.528 262.172 124.703 261.353 128.379C261.081 129.589 260.505 133.192 259.295 133.608C258.274 133.96 257.484 133.055 257.129 132.213C256.389 130.469 257.353 129.311 256.165 126.459C255.749 129.413 253.481 134.658 251.708 137.013C250.53 138.581 248.898 139.746 246.885 138.936C245.193 138.258 244.239 136.603 243.369 135.099C241.365 131.627 239.858 125.039 239.845 121.019C238.213 121.935 237.887 123.317 236.946 124.859C234.93 128.162 231.109 134.738 227.045 135.352C220.639 136.319 221.237 128.354 221.285 124.219C221.372 116.898 227.026 104.514 235.685 105.048C238.297 105.211 239.423 106.443 241.125 106.815C242.079 107.023 243.167 106.805 243.813 107.451C244.338 107.973 244.313 108.815 244.325 109.499V127.099C244.329 129.704 244.815 132.386 245.887 134.779C246.233 135.551 246.828 136.795 247.858 136.69C248.751 136.6 249.593 135.464 250.069 134.779C251.109 133.282 252.434 130.149 253.065 128.379C253.893 126.047 255.743 120.114 256.117 117.819V109.819C256.165 109.074 256.14 107.963 256.348 107.266C256.866 105.535 258.517 105.314 259.417 106.399C260.169 107.307 260.309 109.003 260.325 110.139V122.299ZM234.085 109.288C226.508 111.314 225.436 122.565 225.481 129.019V130.933C226.255 134.831 230.393 130.216 231.378 129.019C234.754 124.917 237.215 120.008 238.773 114.939C239.89 111.311 237.82 108.939 234.085 109.288ZM190.885 116.219L189.285 119.739H190.885V116.219ZM184.485 122.299H184.165L184.485 122.619V122.299ZM184.165 122.619C176.764 124.008 170.757 133.768 168.853 140.539C168.153 143.039 167.541 145.656 168.165 148.219C170.892 147.151 172.732 144.491 174.325 142.139C176.367 139.135 178.754 134.559 180.405 131.259C181.439 129.189 183.602 124.706 184.165 122.619ZM218.085 253.819C213.042 254.485 200.53 254.13 194.725 254.139L189.925 254.459H183.525C182.293 254.463 181.151 254.415 180.005 254.962C178.357 255.749 177.001 257.605 175.791 258.939L170.725 264.047C163.727 270.741 154.607 276.952 146.085 281.56C132.642 288.831 120.825 292.773 106.085 296.386C104.873 296.68 104.204 296.959 103.426 297.995C102.927 298.667 102.7 299.663 101.858 299.759C100.354 299.931 100.325 297.97 97.7655 298.178L93.2855 298.853L83.0455 300.165L64.8055 300.859L61.6055 300.568C53.1639 299.989 44.7287 299.167 36.9655 295.49C33.3463 293.778 29.1127 290.763 30.0471 286.139C31.0423 281.202 37.6279 277.339 41.7655 275.163C52.9783 269.266 68.9463 264.997 81.4455 262.655L93.6055 260.565C94.7671 260.37 98.4759 259.829 99.2663 259.231C100.159 258.555 100.002 257.378 100.005 256.379V246.459L99.6855 241.659V236.539L99.3655 231.099V221.819L99.0455 216.379V195.579L98.7255 190.459V167.099C98.7287 165.951 98.7287 163.967 99.3591 162.987C100.069 161.887 101.721 161.685 102.521 162.757C103.221 163.691 103.202 165.647 103.218 166.779V171.259L103.525 175.099V217.979L103.205 222.779V240.059L102.885 245.179V255.099C102.889 256.261 102.745 257.928 103.919 258.607C104.719 259.074 107.333 258.571 108.325 258.434L118.245 257.288L149.605 254.405L161.125 253.445L168.485 252.859C170.578 252.837 172.975 253.09 174.885 252.079C176.415 251.266 177.577 249.439 178.607 248.059C180.802 245.119 183.541 240.77 185.202 237.499C193.817 220.552 195.657 202.619 185.948 185.659C173.615 164.111 148.754 154.075 125.285 150.693L112.485 149.471L108.645 149.179H98.4055L95.2055 149.471L77.9255 151.394C59.7335 154.405 38.3543 161.176 23.2055 171.81C17.3527 175.919 11.6471 181.103 7.90949 187.259C6.21029 190.059 4.68709 193.205 4.64549 196.539V198.779C4.73189 206.088 11.1447 212.309 16.8055 216.059C25.9191 222.095 37.3559 225.215 48.1655 226.287H51.3655L55.2055 226.619H62.5655L71.2055 225.992C72.7095 226.079 74.0343 226.789 73.6599 228.536C73.3847 229.819 72.3799 230.255 71.2055 230.437L63.8455 231.099H52.0055L43.6855 230.229C32.2679 228.725 19.7783 224.779 10.7255 217.464C5.45509 213.205 0.251893 206.885 0.165493 199.739C0.0918935 193.413 0.725494 189.919 4.06949 184.379C6.21989 180.821 9.20549 177.288 12.3255 174.552C22.7255 165.429 35.4423 159.288 48.4855 154.939C60.3767 150.975 70.6071 148.696 83.0455 147.211L92.9655 146.271L96.8055 145.979H113.125L116.325 146.271L129.445 147.768C146.882 150.693 164.703 157.509 178.085 169.291C187.445 177.531 193.913 187.717 196.14 200.059C196.505 202.066 196.94 204.095 196.965 206.139V213.179C196.956 219.832 193.887 230.168 191.106 236.219C189.644 239.407 187.929 242.527 186.069 245.499L182.245 251.579H190.885L198.885 250.968L217.765 249.979V241.339C217.765 240.018 217.673 237.743 217.993 236.539C218.697 233.903 220.956 234.469 221.689 235.359C222.245 236.034 222.233 236.994 222.245 237.819V253.819C222.249 256.203 222.764 262.725 226.722 259.963C227.157 259.656 227.545 259.304 227.903 258.911C228.373 258.392 228.892 257.618 229.266 257.019C232.015 252.594 230.684 251.979 231.685 247.739C232.585 243.938 234.703 240.475 237.605 237.874C240.722 235.083 249.202 231.419 251.109 237.499C251.324 238.187 251.385 239.023 251.333 239.739C251.023 244.223 245.711 247.663 241.765 248.77C238.879 249.579 235.484 248.626 235.372 252.539C235.157 259.736 240.78 262.927 247.205 260.392C251.826 258.568 256.351 253.73 259.045 249.659C260.796 247.01 261.919 245.205 261.925 241.979V222.779C261.913 221.749 261.692 218.165 261.093 217.477C260.162 216.405 257.212 216.683 255.845 216.699L251.045 217.019H241.765L236.965 217.339H232.165L226.725 217.659H203.365C202.511 217.659 201.279 217.727 200.533 217.285C199.394 216.61 199.263 214.981 200.303 214.168C201.228 213.445 202.885 213.503 204.005 213.499H222.245L226.405 213.819L236.645 214.139L242.085 214.459H258.085C261.983 214.453 261.919 212.831 261.925 209.339V197.179L262.245 190.139L262.565 185.339L262.885 172.859C262.889 171.631 262.834 169.765 263.705 168.799C264.601 167.807 266.29 167.944 266.991 169.093C267.436 169.819 267.365 171.058 267.365 171.899V177.019L267.058 180.219V183.739L266.713 188.539V192.699L266.405 196.219V203.579L266.085 211.579C266.149 215.01 268.78 214.776 271.525 214.779H284.965H302.565L307.365 214.459H314.725L320.165 214.127H324.005L327.846 213.819L340.966 213.499C342.073 213.503 343.497 213.429 344.409 214.091C345.628 214.933 345.599 216.514 344.409 217.285C343.66 217.733 342.434 217.659 341.606 217.659H329.766L324.965 217.339H317.605L312.805 217.019H295.205L290.405 216.699H272.805C271.429 216.683 268.629 216.383 267.385 216.891C265.935 217.48 266.089 218.92 266.085 220.219V252.859C266.089 255.64 266.812 262.267 267.938 264.699C268.38 265.647 269.273 267.397 270.274 267.8C271.237 268.191 272.114 267.49 272.793 266.879C274.345 265.48 275.18 263.656 276.082 261.819C277.769 258.392 280.146 252.815 280.165 249.019V239.099C280.169 237.698 280.041 235.032 282.085 235.032C282.642 235.032 283.065 235.256 283.417 235.679C284.306 236.754 284.322 238.735 284.325 240.059V251.579C285.951 249.928 287.029 244.466 288.037 241.979C288.476 240.904 289.055 239.371 290.117 238.786C291.161 238.213 292.524 238.504 293.196 239.493C294.556 241.48 294.114 246.335 295.157 248.059C297.148 251.336 300.111 249.269 301.061 246.459C301.305 245.743 301.282 244.968 301.285 244.219C301.295 242.251 301.001 237.151 301.852 235.624C302.61 234.255 304.636 234.351 305.391 235.624C305.833 236.373 305.765 237.605 305.765 238.459V253.819C305.769 256.203 306.284 262.725 310.242 259.963C310.677 259.656 311.065 259.304 311.423 258.911C311.893 258.392 312.412 257.618 312.786 257.019C313.497 255.871 315.292 251.877 315.561 250.619L315.775 248.379C316.252 244.418 316.997 240.52 319.9 237.528C322.703 234.642 327.775 233.314 330.988 236.325C333.077 238.287 333.913 241.448 333.926 244.219C333.932 245.423 334.076 247.983 333.506 248.971C332.818 250.165 331.193 250.165 330.505 248.971C329.97 248.043 330.137 246.559 330.031 245.499C329.884 244.043 329.436 242.283 328.69 241.019C328.009 239.867 327.058 238.895 325.605 239.269C323.34 239.851 321.452 243.141 320.629 245.179C317.295 253.429 320.45 264.059 328.166 263.727C330.511 263.624 332.71 262.325 334.566 260.975C338.716 257.957 341.689 254.034 344.294 249.659C344.921 248.6 346.534 245.627 346.844 244.539C347.138 243.499 346.998 242.405 347.1 241.339L347.366 228.219V222.139L347.686 217.019V193.979V172.859C347.711 170.853 348.025 169.029 350.559 169.387C352.882 169.717 352.844 173.602 352.802 175.419C352.716 179.067 351.212 179.435 351.206 184.379V190.139L350.886 194.939V204.539L350.566 209.659V217.979L350.246 222.779V228.539V236.859C350.214 239.387 349.785 240.219 350.566 242.939C351.078 240.107 353.51 235.266 355.686 233.407C357.708 231.682 360.143 231.544 361.65 233.992C362.972 236.143 363.196 239.192 363.391 241.659L363.686 248.059L364.006 252.859C364.018 255.493 364.287 259.666 365.077 262.139C365.426 263.234 366.006 265.096 367.522 264.738C369.007 264.386 370.178 261.81 370.802 260.539C372.927 256.229 373.692 251.403 374.844 246.779C375.324 244.863 375.311 241.727 377.446 241.019C377.436 244.21 376.447 248.104 375.734 251.259C375.026 254.379 373.577 260.101 372.044 262.779C370.358 265.733 366.902 268.981 363.983 265.311C362.825 263.851 361.993 261.083 361.494 259.259C360.271 254.792 359.75 250.095 359.257 245.499L358.646 239.739C358.543 239.119 358.373 237.781 357.948 237.327C357.321 236.655 356.681 237.33 356.255 237.845C355.478 238.792 354.54 240.821 354.012 241.979C352.441 245.426 351.132 251.605 350.655 255.419L350.175 260.219C349.81 262.159 348.146 262.85 347.372 261.717C346.982 261.141 347.046 259.947 347.046 259.259C347.039 256.85 347.314 251.73 346.726 249.659C346.114 251.327 345.113 252.997 344.102 254.459C339.647 260.885 331.119 268.811 322.725 264.447C321.647 263.887 320.738 263.295 319.874 262.431C317.817 260.373 316.991 257.733 316.005 255.099C314.93 258.789 311.58 263.323 307.365 263.087C305.097 262.955 304.053 261.483 303.138 259.579C301.615 256.424 301.285 253.419 301.285 249.979C300.69 250.539 300.108 251.154 299.365 251.525C298.604 251.903 297.641 251.928 296.805 251.887C291.842 251.627 291.983 246.613 289.765 243.579C288.13 246.808 286.172 253.983 285.353 257.659C285.081 258.869 284.505 262.472 283.295 262.888C282.274 263.24 281.484 262.335 281.129 261.493C280.373 259.714 281.365 258.648 280.165 256.059C279.647 259.362 276.655 265.49 274.377 267.893C271.682 270.738 268.61 270.463 266.341 267.259C262.831 262.306 263.157 252.085 261.925 248.059C261.324 249.947 259.881 251.919 258.684 253.499C254.114 259.535 244.38 266.511 236.645 262.024C234.258 260.639 233.161 258.661 231.845 256.379C230.62 259.698 227.682 263.304 223.845 263.087C219.973 262.866 218.236 257.067 218.085 253.819ZM219.077 224.296C220.287 223.995 221.189 223.938 222.21 224.799C224.127 226.415 223.769 229.343 221.893 230.187C217.804 232.021 215.775 226.338 219.077 224.296ZM302.597 224.296C303.807 223.995 304.709 223.938 305.73 224.799C307.647 226.415 307.289 229.343 305.413 230.187C301.324 232.021 299.295 226.338 302.597 224.296ZM236.645 247.739C240.719 247.65 244.514 246.479 247.375 243.442C248.453 242.303 249.641 239.355 248.293 238.011C247.209 236.927 244.77 237.826 243.685 238.501C240.783 240.306 237.289 244.315 236.645 247.739ZM172.005 255.099L154.725 255.739L146.725 256.351L139.365 256.728L118.885 258.597L108.005 259.851C106.94 259.976 104.405 260.133 103.625 260.776C102.754 261.496 102.889 262.725 102.885 263.739V289.019C102.889 290.043 102.713 291.563 103.893 292.015C104.828 292.373 108.204 291.339 109.285 291.032L122.405 286.994C136.255 282.376 149.721 275.295 161.125 266.171L168.165 259.928C169.682 258.495 171.401 257.17 172.005 255.099ZM100.005 261.179L84.0055 263.803C71.3015 266.255 57.7463 269.947 45.9255 275.215C42.6007 276.696 36.4695 280.181 34.2519 282.943C33.0935 284.386 31.9671 286.491 32.7575 288.367C33.2919 289.627 34.8407 290.594 36.0055 291.221C38.8631 292.757 42.1367 293.474 45.2855 294.178C48.9431 294.994 56.9655 296.04 60.6455 296.059L66.0855 296.376L70.8855 296.059C75.6919 296.053 80.5175 295.864 85.2855 295.234L95.8455 293.899C96.8535 293.733 99.0839 293.429 99.7687 292.68C100.431 291.957 100.325 290.584 100.325 289.659V265.659L100.005 261.179Z" fill="white" stroke="white" stroke-width="0.32"/>
</svg>
