<svg width="371" height="105" viewBox="0 0 371 105" fill="none" xmlns="http://www.w3.org/2000/svg">
<path d="M16.1994 73.6561C13.8282 74.0497 13.7194 75.8577 12.7562 77.8161C10.9098 81.5729 9.15945 85.4833 6.40105 88.6833C5.37065 89.8833 1.90505 92.5841 0.525847 90.5169C-0.773353 88.5649 1.73225 82.9169 2.68265 81.0161C4.10985 78.1617 5.83145 75.8833 8.51945 74.0913C10.7562 72.6001 11.8986 72.8145 12.7402 71.8929C13.3674 71.2081 15.3418 66.3249 15.5242 65.3361V62.4561L15.2394 58.2961V53.1761L14.9194 48.0561V34.9361L15.2394 30.7761V25.9761L15.5594 20.8561L15.8506 16.3761L16.8618 3.89607C16.9866 2.57447 17.105 0.440069 18.7594 0.190469C19.121 0.136069 19.5626 0.20647 19.8794 0.43367C20.5386 0.96167 20.0266 4.56807 19.8794 5.49607L18.7594 19.8961L18.4394 25.0161V29.4961L18.1194 34.6161V49.3361L18.7594 58.2961L25.8442 41.0161C30.1642 31.2433 36.5322 17.3329 43.3994 9.33607C46.6506 5.55047 49.7162 2.38247 54.5994 0.753669C56.1642 0.30567 58.6506 -0.32153 60.0394 0.753669C56.6602 1.72967 56.0874 1.09607 52.3594 3.40647C47.6874 6.29927 42.9674 12.6705 40.065 17.3361C34.0554 26.9873 28.2698 40.2897 24.0074 50.9361L18.865 64.0561C18.673 65.2369 19.0154 66.3985 19.0666 67.5761C19.1242 68.9233 18.9738 71.7745 19.7226 72.8913C20.1738 73.5665 21.8346 74.3505 22.5994 74.8369L28.9994 79.0961C38.6858 85.4833 49.3226 92.0337 61.3194 91.8961C64.721 91.8545 68.4394 90.8849 71.5594 89.5665C72.337 89.2369 74.4682 88.0785 75.1626 88.9009C76.1802 90.1041 72.6602 91.8097 71.8794 92.1777C67.1338 94.4209 63.185 94.4625 58.1194 94.4561C43.4762 94.4337 30.9578 83.5569 19.7194 75.5761C19.7194 79.1985 21.3482 94.0945 21.985 97.9761L22.737 103.09C22.7274 103.749 22.337 104.782 21.4922 104.322C20.9962 104.053 20.737 102.968 20.5866 102.456L19.2746 96.6961C17.8314 89.0449 16.8266 81.4097 16.1994 73.6561ZM265.479 73.6561C263.553 74.2033 260.519 73.9761 258.439 73.9761H245.959C244.727 73.9793 241.543 74.1585 240.519 74.6705C239.23 75.3201 235.806 79.4193 234.119 80.8817C229.214 85.1313 224.487 88.6929 218.759 91.7969C210.98 96.0145 202.699 99.1601 194.119 101.294C193.169 101.531 191.406 101.829 190.67 102.37C189.825 102.994 189.668 103.918 188.919 103.95C188.097 103.986 187.655 103.048 186.119 103.064L176.519 104.322L163.079 104.696C158.151 104.638 150.551 103.374 146.119 101.246C143.371 99.9249 141.143 98.1521 141.71 94.7761C142.235 91.6529 146.715 89.0385 149.319 87.6657C156.113 84.0881 167.924 80.7313 175.559 79.4417L183.879 78.0049C184.811 77.8481 186.558 77.6913 187.207 76.9969C187.825 76.3377 187.716 75.1409 187.719 74.2961V67.2561L187.399 61.8161V55.0961L187.079 50.6161V34.9361V23.0961C187.076 20.8241 186.279 15.8705 187.265 13.8993C187.78 12.8817 189.003 12.9745 189.585 13.8993C190.03 14.5969 189.959 15.8737 189.959 16.6961V22.4561L190.279 27.5761V38.4561L189.959 43.8961V67.8961L189.639 73.9761C189.652 74.7345 189.627 75.7617 190.196 76.3441C190.711 76.8721 191.518 76.8529 192.199 76.8017L202.119 75.6305L221.639 73.9217L228.999 73.3073L232.199 73.0161C233.7 73.0001 235.607 73.1377 236.987 72.4881C238.126 71.9505 238.868 70.8049 239.598 69.8161C241.156 67.7009 242.606 65.4417 243.796 63.0961C249.188 52.4881 250.785 41.8193 245.537 30.7761C244.311 28.1937 242.427 25.6017 240.599 23.4161C229.46 10.1009 210.551 5.05127 193.799 4.85607L188.999 4.54887L186.439 4.86887H183.239C167.057 6.45287 147.422 11.1473 134.599 21.5793C131.793 23.8641 130.612 25.0033 128.407 27.8961C124.081 33.5761 123.463 38.7889 128.094 44.5329C129.163 45.8577 130.66 47.0065 132.039 48.0049C137.921 52.2737 145.969 54.6737 153.159 55.4033H155.719L158.919 55.7361L166.919 55.3873C167.905 55.3169 169.147 54.9297 169.975 55.6529C170.99 56.5361 170.43 57.8257 169.147 58.2001L160.519 58.9361H159.239L156.039 58.6449C147.14 58.0369 137.867 56.2641 130.439 50.9649C122.398 45.2273 119.191 37.6561 123.969 28.5361C124.977 26.6161 127.262 23.6529 128.843 22.1905C136.401 15.1953 145.982 10.7537 155.719 7.72967C168.276 3.82567 180.993 2.14247 194.119 2.29607L197.319 2.58727L203.399 3.02887C216.673 4.68007 231.227 9.65927 240.839 19.2561C247.489 25.8961 251.057 32.5425 251.748 41.9761C251.838 43.2145 252.087 43.8321 252.011 45.1761C251.687 50.8593 250.481 56.6193 248.1 61.8161L245.495 66.9361L242.119 72.3761L247.239 72.0561H250.119L265.479 71.0961V64.0561C265.483 63.3297 265.438 62.2161 265.854 61.5953C266.548 60.5649 267.921 60.9073 268.443 62.1553C268.702 62.7697 268.676 63.7105 268.635 64.3761V67.2561C268.644 70.1361 268.02 71.6913 268.635 74.9361C268.724 76.0081 269.089 78.0081 270.603 77.8001C272.017 77.6049 273.38 75.2113 273.812 73.9761C274.42 72.2289 273.771 71.5697 274.58 68.8561C275.579 65.5025 278.212 62.4593 281.479 61.1537C283.07 60.5169 285.131 60.3441 286.475 61.6337C288.689 63.7553 286.875 66.8465 284.996 68.4305C281.265 71.5761 275.23 69.5057 277.31 75.2561C277.537 75.8897 277.947 76.6161 278.404 77.1089C281.767 80.7313 287.153 76.6865 289.707 74.1617C291.959 71.9377 294.235 68.9329 294.279 65.6561C294.34 61.0961 294.526 53.6305 293.959 49.3361H284.039L279.239 49.6561H274.439L268.999 49.9761H256.839C256.11 49.9761 254.961 50.0177 254.299 49.7393C253.191 49.2753 252.823 48.1425 253.777 47.4705C254.42 47.0225 255.748 47.0961 256.519 47.0961H269.639L273.479 47.4033H278.279L282.759 47.7361H291.079C291.889 47.7297 292.849 47.7937 293.502 47.2241C294.401 46.4433 294.276 44.9777 294.279 43.8961V36.8561L294.599 32.0561L294.919 20.8561C294.919 20.0081 294.855 18.5041 295.332 17.7937C295.902 16.9425 297.137 16.9425 297.707 17.7937C298.222 18.5649 298.129 20.5521 298.119 21.4961L297.799 26.2961V28.2161L297.479 32.3761V38.1361L297.159 45.1761C297.172 45.8577 297.143 46.6641 297.671 47.1793C298.347 47.8385 299.793 47.7361 300.679 47.7361H328.199L332.679 47.4033H336.839L340.359 47.0961H346.119C346.798 47.0961 348.007 47.0513 348.619 47.3329C349.71 47.8513 349.623 49.0545 348.619 49.6497C347.982 50.0369 346.865 49.9761 346.119 49.9761H340.679L335.559 49.6561H328.519L323.079 49.3361H306.119L301.319 49.0161C298.052 48.9809 297.166 49.0321 297.159 52.5361V72.6961C297.163 74.6641 297.572 78.5809 298.27 80.3761C298.532 81.0545 299.195 82.4721 299.937 82.7057C301.361 83.1569 302.971 80.1073 303.479 79.0961C304.318 77.4385 306.014 73.4993 306.171 71.7361V65.0161C306.119 64.0881 306.055 62.7057 306.583 61.9089C307.249 60.9105 308.529 61.0929 308.945 62.7825C309.015 63.3681 308.999 64.3921 308.945 65.0161C309.003 67.1409 308.766 70.4305 309.319 72.3761L311.521 65.6561C311.857 64.9009 312.34 63.8961 313.191 63.6273C315.879 62.7729 315.547 67.8193 316.087 69.1761C316.449 70.0817 317.15 71.0865 318.267 70.6737C320.689 69.7809 320.19 66.0785 320.199 64.0561C320.206 62.9329 320.228 60.4529 322.091 61.0673C323.54 61.5441 323.396 63.4865 323.399 64.6961L323.079 72.3761C323.086 73.9889 323.329 79.4865 326.267 77.3521C326.567 77.1313 326.875 76.8081 327.115 76.5233C327.444 76.1297 327.697 75.7041 327.943 75.2561C328.363 74.4945 329.073 72.8849 329.284 72.0561L329.678 68.5361C330.318 64.9841 332.593 60.6577 336.839 60.9809C340.228 61.2369 341.566 64.6097 341.636 67.5761C341.659 68.6033 341.748 70.5393 340.612 71.0417C339.569 71.5057 339.089 70.2737 338.913 69.4961C338.583 68.0177 338.699 64.3889 336.507 64.2289C334.926 64.1137 333.627 66.3601 333.06 67.5761C331.358 71.2337 331.361 76.1873 334.612 79.0257C337.591 81.6209 341.249 79.0449 343.559 76.8433C345.723 74.7825 349.255 70.1457 350.078 67.2561C350.398 66.1265 350.267 63.4449 350.279 62.1361L350.622 57.6561V26.9361V19.5825C350.865 18.5553 351.627 17.5505 352.795 17.9249C354.065 18.3377 354.142 20.7153 354.107 21.8161C354.046 23.6625 353.515 24.4433 353.262 25.9761L352.839 33.3361V42.6161L352.519 48.0561V58.9361L352.199 65.6561C353.95 63.8865 354.526 59.9985 357.319 59.4065C359.303 58.9873 360.289 60.8497 360.679 62.4561C361.422 65.5121 361.444 70.1521 361.479 73.3361C361.495 74.5873 361.867 77.9761 362.273 79.0929C362.503 79.7233 362.907 80.6193 363.732 80.4977C364.955 80.3185 365.806 78.1777 366.231 77.1761C367.406 74.3921 367.908 71.4545 368.638 68.5361C368.993 67.1153 368.942 65.8737 370.439 65.3361C370.295 68.4561 368.363 76.6865 366.926 79.4161C365.943 81.2785 363.671 83.6593 361.649 81.5665C360.59 80.4689 359.806 77.7233 359.447 76.2161L357.319 62.1361C353.799 66.3089 353.006 71.9153 352.491 77.1761C352.401 78.0945 351.732 80.0561 350.468 78.8913C349.908 78.3729 349.953 77.2433 349.963 76.5361C350.004 74.2065 350.667 73.2625 349.963 70.7761C348.804 74.7345 344.231 79.5953 340.359 80.9873C335.646 82.6833 331.063 80.2769 330.119 75.2561C328.657 76.6897 327.94 78.6289 325.959 79.5537C321.278 81.7329 320.203 74.3825 320.199 71.4161C316.055 74.2353 314.039 71.1121 313.159 67.2561H312.519L310.11 74.9361C309.886 75.8321 309.361 78.6609 308.913 79.2721C308.347 80.0433 307.579 79.7777 307.134 79.0449C306.667 78.2769 306.759 76.7953 306.759 75.8961C305.278 77.6113 304.599 81.4449 302.225 83.4417C300.11 85.2209 298.183 84.0785 296.955 81.9761C294.759 78.2161 295.364 73.8417 294.279 70.1361C292.5 74.9521 286.206 80.2801 280.839 80.0433C277.591 79.8993 276.395 78.1489 274.439 75.8961C273.415 78.5073 270.235 81.4961 267.569 78.9169C266.379 77.7649 265.803 75.2561 265.479 73.6561ZM72.2346 54.1585C75.3386 53.4097 75.8858 57.6529 73.4666 58.1905C71.4122 58.6449 69.8026 56.0721 72.2346 54.1585ZM266.475 54.1585C269.579 53.4097 270.126 57.6529 267.707 58.1905C265.652 58.6449 264.043 56.0721 266.475 54.1585ZM321.195 54.1585C324.299 53.4097 324.846 57.6529 322.427 58.1905C320.372 58.6449 318.763 56.0721 321.195 54.1585ZM84.6794 77.1761C86.5898 75.6465 86.9258 73.9569 87.665 71.7361L90.3402 63.7361C90.9034 62.1905 91.9274 59.2017 93.9562 59.4001C95.937 59.5921 96.0618 61.5633 96.2474 63.0961L96.5194 74.2961C96.5354 75.4257 96.9002 79.0545 97.2298 80.0561C97.4154 80.6161 97.777 81.5921 98.5034 81.5921C99.745 81.5921 100.859 79.1153 101.252 78.1361C102.471 75.1281 102.99 72.0209 103.623 68.8561C103.937 67.2849 103.809 65.9153 105.479 65.3361C105.39 67.2529 104.833 69.2049 104.455 71.0961C103.902 73.8577 103.099 77.9185 101.841 80.3761C100.833 82.3441 98.7786 84.5873 96.625 82.5265C95.2906 81.2529 94.7434 79.2273 94.321 77.4961L92.9994 63.7361C89.8314 68.2577 89.7482 71.7745 87.5178 76.2161C86.7818 77.6785 85.201 79.5121 83.441 78.2641C82.385 77.5153 81.7994 75.2273 81.1594 73.9761C80.321 76.9073 76.6666 82.1489 73.329 78.9169C71.5658 77.2113 71.2426 73.7329 71.2394 71.4161C67.0954 74.2353 65.0794 71.1121 64.1994 67.2561H63.5594L61.1498 74.9361C60.9258 75.8321 60.401 78.6609 59.953 79.2721C59.3866 80.0433 58.6186 79.7777 58.1738 79.0449C57.7066 78.2769 57.7994 76.7953 57.7994 75.8961C56.0426 77.9313 55.9722 81.4801 53.3162 82.9713C51.617 83.9249 50.2442 82.6993 49.3354 81.3297C47.7642 78.9713 46.7306 74.2545 46.5994 71.4161C44.4362 74.0561 41.777 80.1937 38.2794 80.8849C34.8362 81.5697 34.4426 77.6433 34.4394 75.2561C34.433 71.2273 35.0602 67.2721 37.745 64.0561C39.4602 62.0017 41.3002 60.7281 44.0394 60.8689C45.4986 60.9457 45.6298 61.2273 46.865 61.6465C48.7018 62.2705 49.745 61.4417 49.7994 64.3761V75.2561C49.8026 76.5457 50.1418 81.1377 51.7738 81.4097C52.9994 81.6113 54.2378 78.7281 54.6442 77.8161C57.041 72.4081 57.1306 70.3857 57.1594 64.6961C57.1626 63.8385 57.1306 62.6513 57.6234 61.9089C57.889 61.5121 58.2538 61.2529 58.7498 61.3201C60.0426 61.4897 60.0266 63.4161 60.0394 64.3761C60.065 66.6385 59.7802 70.3345 60.3594 72.3761L62.561 65.6561C62.897 64.9009 63.3802 63.8961 64.2314 63.6273C66.9194 62.7729 66.5866 67.8193 67.1274 69.1761C67.489 70.0817 68.1898 71.0865 69.3066 70.6737C71.729 69.7809 71.2298 66.0785 71.2394 64.0561C71.2458 62.9329 71.2682 60.4529 73.1306 61.0673C74.5802 61.5441 74.4362 63.4865 74.4394 64.6961L74.1866 72.3761C74.1226 73.2849 74.1226 73.7009 74.1866 74.6161C74.6826 77.5345 76.0778 79.3489 78.3978 76.2097C79.9018 74.1713 81.1466 70.7409 81.1594 68.2161C81.1658 66.8017 80.9162 62.9681 81.6234 61.9121C82.1866 61.0673 83.153 61.1409 83.7418 61.9121C84.4042 62.7921 84.3562 64.5905 84.3594 65.6561V67.2561C84.3146 71.0417 83.3994 73.2305 84.6794 77.1761ZM277.639 69.4961C280.244 69.4737 282.788 68.9489 284.606 66.9073C285.355 66.0689 286.151 64.2481 285.127 63.3009C284.299 62.5329 282.881 63.3137 282.119 63.8161C279.975 65.2241 278.667 67.1953 277.639 69.4961ZM42.4394 63.8993C37.8442 65.8353 37.2394 72.1969 37.3194 76.5361C37.393 80.3889 39.6266 78.2097 41.0634 76.5361C43.0218 74.2609 45.1626 70.1649 45.9466 67.2561C46.657 64.6065 44.8618 63.4961 42.4394 63.8993ZM16.1994 71.0961H15.5594L15.2394 72.0561L16.1994 72.3761V71.0961ZM12.0394 73.9761C7.24585 75.3745 3.33865 81.3713 2.49065 86.1361V89.3361C4.52905 88.2033 5.55305 86.5073 6.78505 84.5361C8.62505 81.5825 10.7402 77.2241 12.0394 73.9761ZM235.399 74.6161H231.879L225.799 74.9361L219.719 75.2561L212.679 75.8961H209.799L200.199 76.8785L193.159 77.6817C192.171 77.8161 190.852 77.7873 190.151 78.5937C189.54 79.2945 189.643 80.4593 189.639 81.3361V96.0561C189.639 96.7569 189.521 98.1425 190.151 98.5969C190.83 99.0865 192.695 98.4497 193.479 98.2545L202.759 95.4609C211.703 92.3569 220.289 88.0177 227.719 82.1041C230.238 80.1009 233.697 77.2977 235.399 74.6161ZM19.7194 75.2561H19.3994L19.7194 75.5761V75.2561ZM187.732 78.4561C176.295 80.5105 163.073 82.6833 152.519 87.6657C149.953 88.8785 146.823 90.4817 144.871 92.5489C144.03 93.4417 143.095 94.7345 143.39 96.0433C143.649 97.1857 144.836 97.9057 145.799 98.4145C147.617 99.3713 151.102 100.245 153.159 100.536C156.129 100.955 159.115 101.493 162.119 101.496H171.079L179.399 100.834L185.479 100.005C186.148 99.8609 187.239 99.6593 187.665 99.0865C188.119 98.4657 188.039 97.1313 188.039 96.3761V86.4561L187.732 82.6161V78.4561Z" fill="white"/>
<path d="M19.7194 75.5761C30.9578 83.5569 43.4762 94.4337 58.1194 94.4561C63.185 94.4625 67.1338 94.4209 71.8794 92.1777C72.6602 91.8097 76.1802 90.1041 75.1626 88.9009C74.4682 88.0785 72.337 89.2369 71.5594 89.5665C68.4394 90.8849 64.721 91.8545 61.3194 91.8961C49.3226 92.0337 38.6858 85.4833 28.9994 79.0961L22.5994 74.8369C21.8346 74.3505 20.1738 73.5665 19.7226 72.8913C18.9738 71.7745 19.1242 68.9233 19.0666 67.5761C19.0154 66.3985 18.673 65.2369 18.865 64.0561L24.0074 50.9361C28.2698 40.2897 34.0554 26.9873 40.065 17.3361C42.9674 12.6705 47.6874 6.29927 52.3594 3.40647C56.0874 1.09607 56.6602 1.72967 60.0394 0.753669C58.6506 -0.32153 56.1642 0.30567 54.5994 0.753669C49.7162 2.38247 46.6506 5.55047 43.3994 9.33607C36.5322 17.3329 30.1642 31.2433 25.8442 41.0161L18.7594 58.2961L18.1194 49.3361V34.6161L18.4394 29.4961V25.0161L18.7594 19.8961L19.8794 5.49607C20.0266 4.56807 20.5386 0.96167 19.8794 0.43367C19.5626 0.20647 19.121 0.136069 18.7594 0.190469C17.105 0.440069 16.9866 2.57447 16.8618 3.89607L15.8506 16.3761L15.5594 20.8561L15.2394 25.9761V30.7761L14.9194 34.9361V48.0561L15.2394 53.1761V58.2961L15.5242 62.4561V65.3361C15.3418 66.3249 13.3674 71.2081 12.7402 71.8929C11.8986 72.8145 10.7562 72.6001 8.51945 74.0913C5.83145 75.8833 4.10985 78.1617 2.68265 81.0161C1.73225 82.9169 -0.773353 88.5649 0.525847 90.5169C1.90505 92.5841 5.37065 89.8833 6.40105 88.6833C9.15945 85.4833 10.9098 81.5729 12.7562 77.8161C13.7194 75.8577 13.8282 74.0497 16.1994 73.6561C16.8266 81.4097 17.8314 89.0449 19.2746 96.6961L20.5866 102.456C20.737 102.968 20.9962 104.053 21.4922 104.322C22.337 104.782 22.7274 103.749 22.737 103.09L21.985 97.9761C21.3482 94.0945 19.7194 79.1985 19.7194 75.5761ZM19.7194 75.5761L19.3994 75.2561H19.7194V75.5761ZM265.479 73.6561C263.553 74.2033 260.519 73.9761 258.439 73.9761H245.959C244.727 73.9793 241.543 74.1585 240.519 74.6705C239.23 75.3201 235.806 79.4193 234.119 80.8817C229.214 85.1313 224.487 88.6929 218.759 91.7969C210.98 96.0145 202.699 99.1601 194.119 101.294C193.169 101.531 191.406 101.829 190.67 102.37C189.825 102.994 189.668 103.918 188.919 103.95C188.097 103.986 187.655 103.048 186.119 103.064L176.519 104.322L163.079 104.696C158.151 104.638 150.551 103.374 146.119 101.246C143.371 99.9249 141.143 98.1521 141.71 94.7761C142.235 91.6529 146.715 89.0385 149.319 87.6657C156.113 84.0881 167.924 80.7313 175.559 79.4417L183.879 78.0049C184.811 77.8481 186.558 77.6913 187.207 76.9969C187.825 76.3377 187.716 75.1409 187.719 74.2961V67.2561L187.399 61.8161V55.0961L187.079 50.6161V34.9361V23.0961C187.076 20.8241 186.279 15.8705 187.265 13.8993C187.78 12.8817 189.003 12.9745 189.585 13.8993C190.03 14.5969 189.959 15.8737 189.959 16.6961V22.4561L190.279 27.5761V38.4561L189.959 43.8961V67.8961L189.639 73.9761C189.652 74.7345 189.627 75.7617 190.196 76.3441C190.711 76.8721 191.518 76.8529 192.199 76.8017L202.119 75.6305L221.639 73.9217L228.999 73.3073L232.199 73.0161C233.7 73.0001 235.607 73.1377 236.987 72.4881C238.126 71.9505 238.868 70.8049 239.598 69.8161C241.156 67.7009 242.606 65.4417 243.796 63.0961C249.188 52.4881 250.785 41.8193 245.537 30.7761C244.311 28.1937 242.427 25.6017 240.599 23.4161C229.46 10.1009 210.551 5.05127 193.799 4.85607L188.999 4.54887L186.439 4.86887H183.239C167.057 6.45287 147.422 11.1473 134.599 21.5793C131.793 23.8641 130.612 25.0033 128.407 27.8961C124.081 33.5761 123.463 38.7889 128.094 44.5329C129.163 45.8577 130.66 47.0065 132.039 48.0049C137.921 52.2737 145.969 54.6737 153.159 55.4033H155.719L158.919 55.7361L166.919 55.3873C167.905 55.3169 169.147 54.9297 169.975 55.6529C170.99 56.5361 170.43 57.8257 169.147 58.2001L160.519 58.9361H159.239L156.039 58.6449C147.14 58.0369 137.867 56.2641 130.439 50.9649C122.398 45.2273 119.191 37.6561 123.969 28.5361C124.977 26.6161 127.262 23.6529 128.843 22.1905C136.401 15.1953 145.982 10.7537 155.719 7.72967C168.276 3.82567 180.993 2.14247 194.119 2.29607L197.319 2.58727L203.399 3.02887C216.673 4.68007 231.227 9.65927 240.839 19.2561C247.489 25.8961 251.057 32.5425 251.748 41.9761C251.838 43.2145 252.087 43.8321 252.011 45.1761C251.687 50.8593 250.481 56.6193 248.1 61.8161L245.495 66.9361L242.119 72.3761L247.239 72.0561H250.119L265.479 71.0961V64.0561C265.483 63.3297 265.438 62.2161 265.854 61.5953C266.548 60.5649 267.921 60.9073 268.443 62.1553C268.702 62.7697 268.676 63.7105 268.635 64.3761V67.2561C268.644 70.1361 268.02 71.6913 268.635 74.9361C268.724 76.0081 269.089 78.0081 270.603 77.8001C272.017 77.6049 273.38 75.2113 273.812 73.9761C274.42 72.2289 273.771 71.5697 274.58 68.8561C275.579 65.5025 278.212 62.4593 281.479 61.1537C283.07 60.5169 285.131 60.3441 286.475 61.6337C288.689 63.7553 286.875 66.8465 284.996 68.4305C281.265 71.5761 275.23 69.5057 277.31 75.2561C277.537 75.8897 277.947 76.6161 278.404 77.1089C281.767 80.7313 287.153 76.6865 289.707 74.1617C291.959 71.9377 294.235 68.9329 294.279 65.6561C294.34 61.0961 294.526 53.6305 293.959 49.3361H284.039L279.239 49.6561H274.439L268.999 49.9761H256.839C256.11 49.9761 254.961 50.0177 254.299 49.7393C253.191 49.2753 252.823 48.1425 253.777 47.4705C254.42 47.0225 255.748 47.0961 256.519 47.0961H269.639L273.479 47.4033H278.279L282.759 47.7361H291.079C291.889 47.7297 292.849 47.7937 293.502 47.2241C294.401 46.4433 294.276 44.9777 294.279 43.8961V36.8561L294.599 32.0561L294.919 20.8561C294.919 20.0081 294.855 18.5041 295.332 17.7937C295.902 16.9425 297.137 16.9425 297.707 17.7937C298.222 18.5649 298.129 20.5521 298.119 21.4961L297.799 26.2961V28.2161L297.479 32.3761V38.1361L297.159 45.1761C297.172 45.8577 297.143 46.6641 297.671 47.1793C298.347 47.8385 299.793 47.7361 300.679 47.7361H328.199L332.679 47.4033H336.839L340.359 47.0961H346.119C346.798 47.0961 348.007 47.0513 348.619 47.3329C349.71 47.8513 349.623 49.0545 348.619 49.6497C347.982 50.0369 346.865 49.9761 346.119 49.9761H340.679L335.559 49.6561H328.519L323.079 49.3361H306.119L301.319 49.0161C298.052 48.9809 297.166 49.0321 297.159 52.5361V72.6961C297.163 74.6641 297.572 78.5809 298.27 80.3761C298.532 81.0545 299.195 82.4721 299.937 82.7057C301.361 83.1569 302.971 80.1073 303.479 79.0961C304.318 77.4385 306.014 73.4993 306.171 71.7361V65.0161C306.119 64.0881 306.055 62.7057 306.583 61.9089C307.249 60.9105 308.529 61.0929 308.945 62.7825C309.015 63.3681 308.999 64.3921 308.945 65.0161C309.003 67.1409 308.766 70.4305 309.319 72.3761L311.521 65.6561C311.857 64.9009 312.34 63.8961 313.191 63.6273C315.879 62.7729 315.547 67.8193 316.087 69.1761C316.449 70.0817 317.15 71.0865 318.267 70.6737C320.689 69.7809 320.19 66.0785 320.199 64.0561C320.206 62.9329 320.228 60.4529 322.091 61.0673C323.54 61.5441 323.396 63.4865 323.399 64.6961L323.079 72.3761C323.086 73.9889 323.329 79.4865 326.267 77.3521C326.567 77.1313 326.875 76.8081 327.115 76.5233C327.444 76.1297 327.697 75.7041 327.943 75.2561C328.363 74.4945 329.073 72.8849 329.284 72.0561L329.678 68.5361C330.318 64.9841 332.593 60.6577 336.839 60.9809C340.228 61.2369 341.566 64.6097 341.636 67.5761C341.659 68.6033 341.748 70.5393 340.612 71.0417C339.569 71.5057 339.089 70.2737 338.913 69.4961C338.583 68.0177 338.699 64.3889 336.507 64.2289C334.926 64.1137 333.627 66.3601 333.06 67.5761C331.358 71.2337 331.361 76.1873 334.612 79.0257C337.591 81.6209 341.249 79.0449 343.559 76.8433C345.723 74.7825 349.255 70.1457 350.078 67.2561C350.398 66.1265 350.267 63.4449 350.279 62.1361L350.622 57.6561V26.9361V19.5825C350.865 18.5553 351.627 17.5505 352.795 17.9249C354.065 18.3377 354.142 20.7153 354.107 21.8161C354.046 23.6625 353.515 24.4433 353.262 25.9761L352.839 33.3361V42.6161L352.519 48.0561V58.9361L352.199 65.6561C353.95 63.8865 354.526 59.9985 357.319 59.4065C359.303 58.9873 360.289 60.8497 360.679 62.4561C361.422 65.5121 361.444 70.1521 361.479 73.3361C361.495 74.5873 361.867 77.9761 362.273 79.0929C362.503 79.7233 362.907 80.6193 363.732 80.4977C364.955 80.3185 365.806 78.1777 366.231 77.1761C367.406 74.3921 367.908 71.4545 368.638 68.5361C368.993 67.1153 368.942 65.8737 370.439 65.3361C370.295 68.4561 368.363 76.6865 366.926 79.4161C365.943 81.2785 363.671 83.6593 361.649 81.5665C360.59 80.4689 359.806 77.7233 359.447 76.2161L357.319 62.1361C353.799 66.3089 353.006 71.9153 352.491 77.1761C352.401 78.0945 351.732 80.0561 350.468 78.8913C349.908 78.3729 349.953 77.2433 349.963 76.5361C350.004 74.2065 350.667 73.2625 349.963 70.7761C348.804 74.7345 344.231 79.5953 340.359 80.9873C335.646 82.6833 331.063 80.2769 330.119 75.2561C328.657 76.6897 327.94 78.6289 325.959 79.5537C321.278 81.7329 320.203 74.3825 320.199 71.4161C316.055 74.2353 314.039 71.1121 313.159 67.2561H312.519L310.11 74.9361C309.886 75.8321 309.361 78.6609 308.913 79.2721C308.347 80.0433 307.579 79.7777 307.134 79.0449C306.667 78.2769 306.759 76.7953 306.759 75.8961C305.278 77.6113 304.599 81.4449 302.225 83.4417C300.11 85.2209 298.183 84.0785 296.955 81.9761C294.759 78.2161 295.364 73.8417 294.279 70.1361C292.5 74.9521 286.206 80.2801 280.839 80.0433C277.591 79.8993 276.395 78.1489 274.439 75.8961C273.415 78.5073 270.235 81.4961 267.569 78.9169C266.379 77.7649 265.803 75.2561 265.479 73.6561ZM72.2346 54.1585C75.3386 53.4097 75.8858 57.6529 73.4666 58.1905C71.4122 58.6449 69.8026 56.0721 72.2346 54.1585ZM266.475 54.1585C269.579 53.4097 270.126 57.6529 267.707 58.1905C265.652 58.6449 264.043 56.0721 266.475 54.1585ZM321.195 54.1585C324.299 53.4097 324.846 57.6529 322.427 58.1905C320.372 58.6449 318.763 56.0721 321.195 54.1585ZM84.6794 77.1761C86.5898 75.6465 86.9258 73.9569 87.665 71.7361L90.3402 63.7361C90.9034 62.1905 91.9274 59.2017 93.9562 59.4001C95.937 59.5921 96.0618 61.5633 96.2474 63.0961L96.5194 74.2961C96.5354 75.4257 96.9002 79.0545 97.2298 80.0561C97.4154 80.6161 97.777 81.5921 98.5034 81.5921C99.745 81.5921 100.859 79.1153 101.252 78.1361C102.471 75.1281 102.99 72.0209 103.623 68.8561C103.937 67.2849 103.809 65.9153 105.479 65.3361C105.39 67.2529 104.833 69.2049 104.455 71.0961C103.902 73.8577 103.099 77.9185 101.841 80.3761C100.833 82.3441 98.7786 84.5873 96.625 82.5265C95.2906 81.2529 94.7434 79.2273 94.321 77.4961L92.9994 63.7361C89.8314 68.2577 89.7482 71.7745 87.5178 76.2161C86.7818 77.6785 85.201 79.5121 83.441 78.2641C82.385 77.5153 81.7994 75.2273 81.1594 73.9761C80.321 76.9073 76.6666 82.1489 73.329 78.9169C71.5658 77.2113 71.2426 73.7329 71.2394 71.4161C67.0954 74.2353 65.0794 71.1121 64.1994 67.2561H63.5594L61.1498 74.9361C60.9258 75.8321 60.401 78.6609 59.953 79.2721C59.3866 80.0433 58.6186 79.7777 58.1738 79.0449C57.7066 78.2769 57.7994 76.7953 57.7994 75.8961C56.0426 77.9313 55.9722 81.4801 53.3162 82.9713C51.617 83.9249 50.2442 82.6993 49.3354 81.3297C47.7642 78.9713 46.7306 74.2545 46.5994 71.4161C44.4362 74.0561 41.777 80.1937 38.2794 80.8849C34.8362 81.5697 34.4426 77.6433 34.4394 75.2561C34.433 71.2273 35.0602 67.2721 37.745 64.0561C39.4602 62.0017 41.3002 60.7281 44.0394 60.8689C45.4986 60.9457 45.6298 61.2273 46.865 61.6465C48.7018 62.2705 49.745 61.4417 49.7994 64.3761V75.2561C49.8026 76.5457 50.1418 81.1377 51.7738 81.4097C52.9994 81.6113 54.2378 78.7281 54.6442 77.8161C57.041 72.4081 57.1306 70.3857 57.1594 64.6961C57.1626 63.8385 57.1306 62.6513 57.6234 61.9089C57.889 61.5121 58.2538 61.2529 58.7498 61.3201C60.0426 61.4897 60.0266 63.4161 60.0394 64.3761C60.065 66.6385 59.7802 70.3345 60.3594 72.3761L62.561 65.6561C62.897 64.9009 63.3802 63.8961 64.2314 63.6273C66.9194 62.7729 66.5866 67.8193 67.1274 69.1761C67.489 70.0817 68.1898 71.0865 69.3066 70.6737C71.729 69.7809 71.2298 66.0785 71.2394 64.0561C71.2458 62.9329 71.2682 60.4529 73.1306 61.0673C74.5802 61.5441 74.4362 63.4865 74.4394 64.6961L74.1866 72.3761C74.1226 73.2849 74.1226 73.7009 74.1866 74.6161C74.6826 77.5345 76.0778 79.3489 78.3978 76.2097C79.9018 74.1713 81.1466 70.7409 81.1594 68.2161C81.1658 66.8017 80.9162 62.9681 81.6234 61.9121C82.1866 61.0673 83.153 61.1409 83.7418 61.9121C84.4042 62.7921 84.3562 64.5905 84.3594 65.6561V67.2561C84.3146 71.0417 83.3994 73.2305 84.6794 77.1761ZM277.639 69.4961C280.244 69.4737 282.788 68.9489 284.606 66.9073C285.355 66.0689 286.151 64.2481 285.127 63.3009C284.299 62.5329 282.881 63.3137 282.119 63.8161C279.975 65.2241 278.667 67.1953 277.639 69.4961ZM42.4394 63.8993C37.8442 65.8353 37.2394 72.1969 37.3194 76.5361C37.393 80.3889 39.6266 78.2097 41.0634 76.5361C43.0218 74.2609 45.1626 70.1649 45.9466 67.2561C46.657 64.6065 44.8618 63.4961 42.4394 63.8993ZM16.1994 71.0961H15.5594L15.2394 72.0561L16.1994 72.3761V71.0961ZM12.0394 73.9761C7.24585 75.3745 3.33865 81.3713 2.49065 86.1361V89.3361C4.52905 88.2033 5.55305 86.5073 6.78505 84.5361C8.62505 81.5825 10.7402 77.2241 12.0394 73.9761ZM235.399 74.6161H231.879L225.799 74.9361L219.719 75.2561L212.679 75.8961H209.799L200.199 76.8785L193.159 77.6817C192.171 77.8161 190.852 77.7873 190.151 78.5937C189.54 79.2945 189.643 80.4593 189.639 81.3361V96.0561C189.639 96.7569 189.521 98.1425 190.151 98.5969C190.83 99.0865 192.695 98.4497 193.479 98.2545L202.759 95.4609C211.703 92.3569 220.289 88.0177 227.719 82.1041C230.238 80.1009 233.697 77.2977 235.399 74.6161ZM187.732 78.4561C176.295 80.5105 163.073 82.6833 152.519 87.6657C149.953 88.8785 146.823 90.4817 144.871 92.5489C144.03 93.4417 143.095 94.7345 143.39 96.0433C143.649 97.1857 144.836 97.9057 145.799 98.4145C147.617 99.3713 151.102 100.245 153.159 100.536C156.129 100.955 159.115 101.493 162.119 101.496H171.079L179.399 100.834L185.479 100.005C186.148 99.8609 187.239 99.6593 187.665 99.0865C188.119 98.4657 188.039 97.1313 188.039 96.3761V86.4561L187.732 82.6161V78.4561Z" stroke="white" stroke-width="0.32"/>
</svg>
