<?xml version="1.0" encoding="UTF-8"?>
<svg id="Layer_2" data-name="Layer 2" xmlns="http://www.w3.org/2000/svg" viewBox="0 0 679.69 188.66">
  <defs>
    <style>
      .cls-1 {
        fill: #72a3e9;
      }
    </style>
  </defs>
  <g id="Layer_1-2" data-name="Layer 1">
    <g>
      <path class="cls-1" d="M102.66,188.66h-3.36c-14.26,0-25.13-12.43-25.21-28.99l-.23-43.66c4.03-.21,7.57-.22,11.45,0l.26,48.05c.02,3.88,2,7.73,4.36,10.43,4.88,5.57,16.79,5.49,21.64.46,3.15-3.26,5.26-7.97,5.28-12.82l.24-46.24h11.04s-.27,46.14-.27,46.14c-.02,4.29-1.21,8.29-2.89,12.05-4.08,9.14-12.82,13.58-22.32,14.57Z"/>
      <path class="cls-1" d="M38.34,150.63c9.3,2.39,15.46,9.46,14.64,18.98-.54,6.25-3.46,11.54-9.08,14.55-4.45,2.63-9.56,3.77-14.88,3.81l-28.99.2-.03-72.32,29.96.25c5.45.05,10.46,1.85,14.74,4.96,4.58,3.61,6.39,9.18,6.25,14.95-.2,7.86-6.07,12.36-12.61,14.63ZM37.67,128.96c-1.99-1.98-4.72-2.77-7.57-3.47l-19.06-.05v21.11c6.81-.5,20.2,1.37,25.23-2.49s4.57-11.14,1.4-15.11ZM38.82,174.94c4.67-4.35,4.27-11.72.18-16.02-6.3-5.41-19.81-3.32-27.96-3.81v23.53c7.18-.42,22.28,1.43,27.78-3.7Z"/>
      <path class="cls-1" d="M181.81,188.08c-3.69.16-7.14.2-11.02-.03l-.02-62.11h-24.93s.01-10.06.01-10.06h61.23c.26,3.17.2,6.39.01,9.99l-25.3.07.02,62.13Z"/>
      <path class="cls-1" d="M277.94,178.11c.56,3.12.27,6.4.13,10.04h-47.82s-.02-72.24-.02-72.24l11.49.11.02,62.12,36.19-.03Z"/>
      <g>
        <path class="cls-1" d="M429.29,179.07c2.38,7.28,6.29,5.55,5.21,9.11l-11.43-.02c-6.66,0-5.62-20.25-8.01-24.09-1.41-3.76-4.7-6.82-8.92-6.86l-19.04-.18v31.03c-3.49.2-7.04.2-11.01-.02l-.04-72.2,31.5.21c5.16.03,9.83,1.62,14.25,3.97,8.78,4.97,11.93,19.08,4.31,26.69-2.82,2.82-5.88,4.9-10,5.83,7.11,3.28,9.13,8.35,10.69,15.15.62,3.91,1.28,7.68,2.49,11.38ZM416.92,143.46c3.15-4.09,2.92-9.35.19-13.59-2.78-2.78-6.51-4.18-10.58-4.22l-19.43-.22v22.56c7.97-.49,24.13,1.74,29.82-4.52Z"/>
        <path class="cls-1" d="M341.94,155.54l-25.84.1v22.48s37.28.05,37.28.05c.23,3.47.25,6.5-.01,9.99h-48.28s-.02-72.23-.02-72.23l47.34-.02.14,9.56h-36.44s0,20.09,0,20.09l25.76.07c.27,3.36.17,6.16.07,9.91Z"/>
      </g>
      <g>
        <path class="cls-1" d="M679.69,17.73v1.92c-2.47.64-7.08,4.43-9.96,5.75-1.1-5.15-3.18-10.15-7.53-13.13-6.42-4.41-14.77-3.08-20.04,2.5-5.71,6.04-7.21,13.95-7.21,22.11s1.14,16.11,6.46,22.34c2.82,3.3,6.28,5.45,10.7,5.74,11.31.73,17.23-8.53,18.06-18.95l-19.13-.12c-.22-3.1-.25-5.82.02-8.96l28.63-.05v36.39h-7.73c.17,0-.37-10.71-1.13-9.61-2.76,5.84-8.31,9.8-14.93,10.78-9.02,1.33-17.45-2.35-23.36-9.19-8.42-9.75-9.88-21.99-8.77-34.4,1.61-17.89,15.65-33.74,35.28-30.38,11.16,1.91,16.07,7.82,20.63,17.28Z"/>
        <polygon class="cls-1" points="365.03 40.7 339.61 40.72 339.61 63.7 376.53 63.69 376.52 73.27 328.57 73.28 328.57 1.45 375.56 1.45 375.57 11.03 339.61 11.02 339.61 31.14 365.02 31.13 365.03 40.7"/>
        <path class="cls-1" d="M53.78,73.18l-.1-56.99-18.38,32.56-5.73.14L11.12,16.24l-.12,56.89L0,73.25V1.47s12.9.02,12.9.02l19.51,35.35L51.86,1.48h12.91s-.03,71.64-.03,71.64c-3.71.27-6.84.18-10.96.06Z"/>
        <path class="cls-1" d="M527.54,73.23l-51.2.06v-9.59s20.13,0,20.13,0V11.03s-20.14,0-20.14,0V1.45s51.18,0,51.18,0c.27,3.01.21,6.08.01,9.5l-20.02.09v52.65s20.14,0,20.14,0l-.09,9.53Z"/>
        <polygon class="cls-1" points="431.71 73.06 420.67 73.25 420.68 11.03 395.74 11.03 395.76 1.45 457.1 1.45 457.11 11.03 431.7 11.03 431.71 73.06"/>
        <polygon class="cls-1" points="604.39 73.15 594.74 73.22 560.82 16.93 560.68 73.13 550.18 73.24 550.18 1.47 563 1.49 593.76 53.67 593.85 1.47 604.39 1.47 604.39 73.15"/>
        <path class="cls-1" d="M226.92,66.54c1.29,2.91,5.2,5.23,4.76,5.97-.14.23-.51.76-.99.76l-11.95-.11c-.86,0-2.03-1.52-2.37-2.28-4.14-9.21-1.23-16.55-6-24.23-2-3.14-5.46-4.29-9.12-4.33l-17.04-.2-.06,31.02c-3.94.19-7.47.22-11.44-.02l-.04-71.72,33.88.22c4.9.03,9.19,2.21,13.27,4.41l3.84,3.98c4.46,4.62,4.75,12.73,1.72,18.64-2.52,4.91-7.27,7.5-12.49,9.39,8.07,3.32,9.84,10.25,11.2,18.39.55,3.54,1.4,6.87,2.83,10.1ZM213.26,29.26c3.31-3.98,3.56-9.41.79-13.57-2.11-2.49-5.07-4.38-8.54-4.43l-21.31-.29v22.09s19.04-.1,19.04-.1c3.67-.54,7.03-1.28,10.02-3.71Z"/>
        <path class="cls-1" d="M288.2,20.54c-3.36,3.63-5.91,6.49-9.58,10.34l30.42,42.33-13.24.09-24.96-34.63-7.14,8.19c-.94,1.08-3.07,2.35-3.09,3.98l-.26,22.3-10.93.1V1.47s11.02-.02,11.02-.02l.07,35.71L292.59,1.45h12.95c-1.58,2.77-3.94,4.6-6.05,6.88l-5.75,6.23-5.54,5.98Z"/>
        <g>
          <path class="cls-1" d="M141.01,40.55l-22.13-26-21.93,25.81-.1,32.79-10.98.12v-34.51S118.71.03,118.71.03c1.79,1.48,2.81,3.05,4.28,4.65l29.11,34.4-.09,34.06-10.98.12-.03-32.71Z"/>
          <polygon class="cls-1" points="126.67 73.1 111.29 78.77 111.29 41.67 126.59 41.76 126.67 73.1"/>
        </g>
      </g>
    </g>
  </g>
</svg>