<?xml version="1.0" encoding="UTF-8"?>
<svg id="Layer_2" data-name="Layer 2" xmlns="http://www.w3.org/2000/svg" viewBox="0 0 408.66 116.82">
  <defs>
    <style>
      .cls-1 {
        fill: #e42229;
      }

      .cls-2 {
        fill: #0873b9;
      }
    </style>
  </defs>
  <g id="Layer_1-2" data-name="Layer 1">
    <g>
      <path class="cls-2" d="M155.66,35.47c-.24-1.49-.81-1.48-1.39-.37l-14.11,42.74c-4.04.05-7.33.25-10.69-.12l-15.17-45.97-.36,46.09c-3.67.01-6.99.35-10.6-.24l-.06-55.59,18-.05,13.05,40.79c.99.31,1.11-.8,1.67-1.78l12.29-38.97,18.02-.07.05,55.51c-3.3.79-6.34.49-10.61.33l-.07-42.3Z"/>
      <path class="cls-2" d="M281.27,54.7l16.05,21.6c.64.65.37,1.49-.58,1.67l-11.88-.3-13.65-19.11-.67,19.04c-3.23.48-6,.31-10.47.19l.02-59.99c3.67-.26,6.92-.56,10.59.1v32.07c.07.82.29,1.33.65,1.49.45.23.84-.09,1.24-.61l3.56-4.6,7.69-9.64c4.07-.06,7.93-.47,12.15.22l-14.71,17.86Z"/>
      <path class="cls-2" d="M207.55,69.52l5.58-2.3c.44,2.64.8,5.68-.21,8.58-6.55,3.18-13.24,3.69-20.15,2.25-7.2-1.35-12.57-6.4-14.29-13.32-1.52-5.86-1.27-11.91.87-17.57,3-8.11,10.77-12.59,19.47-11.47,7.34-.04,13.42,4.26,15.84,11.31,1.29,4.33,1.95,8.5,1.72,13.18l-28.12.35c-.28,4.74,2.78,8.61,7.58,9.94,3.86.95,7.63.43,11.7-.95ZM205.76,52.98c.66-3.38-.9-6.08-3.31-8.19-1.88-1.28-4.63-2.02-7.68-1.14-4.29,1.06-7,4.96-6.62,9.29l17.6.04Z"/>
      <path class="cls-2" d="M321.02,70.12c4.3,1.42,7.9.78,11.56-.25l6.84-3.05.16,8.65c-8.08,4.06-17.41,4.43-25.7,1-3.59-2-6.4-4.58-8.23-8.54-3.08-7.62-2.8-16.04.87-23.21,2.95-5.58,8.18-8.69,14.33-9.07,3.49-.36,7.23.03,10.72,1.39,4.21,1.73,7.13,4.69,8.8,8.99,1.6,4.52,2.42,8.74,2.12,14.2l-25.99.23c-1.57-.17-2.67.77-2.27,2.34.9,3.51,2.94,6.04,6.8,7.33ZM332.31,52.84c-.26-4.13-1.66-5.99-3.58-8.04-3.36-1.95-7.16-2.16-10.57.1-2.26,1.69-4.71,4.63-3.83,8.18l17.99-.25Z"/>
      <path class="cls-2" d="M363.69,77.72c-3.67.39-6.62.14-10.62.11l.11-40.96c3.24-.63,6.22-.42,9.3-.18.26,2.88-.52,4.75.42,7.47,1.58-3.04,3.42-5.36,6.25-7.45,2.25-1.46,5.18-1.36,8.24-.8v10.21s-4.92-.3-4.92-.3c-3.46-.09-5.94,1.96-7.23,5.15-1.09,2.57-1.18,5.24-1.5,7.96l-.06,18.8Z"/>
      <path class="cls-2" d="M237.73,77.54c-3.49.69-6.46.3-10.61.28l-.15-40.97c3.24-.69,6.12-.32,9.1-.17.73,1.93.54,3.92.44,6.6.97,1.27,1.72.22.99-1.54l4.47-4.16c2.79-1.88,6.04-2.87,9.16-1.5.42,3,.13,5.71.23,9.04-.51,1.13-1.52.96-2.64.81-2.96-.59-5.71.02-7.87,2.15-2.37,3.21-3.1,6.93-3.09,10.85l-.04,18.61Z"/>
      <path class="cls-1" d="M408.66,21.58c-1.45-.16-2.28-.11-3.22-.99-3.94-1.13-7.61-.6-11.2.71-2.56.52-4.99,1.18-7.8,1.03-2.38-.05-4.28-.86-6.24-2.21l-.38-20.05c3.35,2.38,7.29,3.26,11.58,2.01L400.4.02c2.91-.14,5.29.61,8.11,2.3l.15,19.27ZM392.77,19.04c2.12.04,2.9-.5,3.52-.64.36-1.13.41-2.07.33-3.36-.09-1.27.06-2.25.55-2.56.68-.33,1.3-.43,2.23-.49,1.39,0,2.27-.46,2.37-1.43.2-.81.04-1.93-1.24-2.39l-3.64.62c-.65-1.69-.54-2.91-.35-4.93-.99-.84-2.28-.26-2.67-.12-1.73.49-1.49,1.8-1.41,3.32.06,1.33-.04,2.39-.75,2.91-.57.31-1.22.4-2.01.52-1.14.08-2.11.43-2.41,1.08-.35.77-.37,1.46.34,2.47l4.71-.02c.33,1.87-.24,3.29.42,5.04Z"/>
      <g>
        <path class="cls-2" d="M155.43,116.72c-15.14-.99-28.42-4.67-41.43-11.22l-11.35-6.32c-21.76-12.47-46.82-16.09-71.47-10.47-11.2,2.66-21.22,6.31-30.74,12.14-.78-2.28-.3-3.75-.22-6.22,12.25-6.57,25.01-10.78,38.93-12.74,23.1-3.26,45.32,1.09,65.9,12.31,15.69,10.06,32.2,16.24,50.87,17.22,20.12.85,39.24-4.13,56.9-14.18,1.08,1.84.7,3.83.28,5.92-17.51,9.53-36.83,14.42-57.68,13.56Z"/>
        <path class="cls-2" d="M327.21,110.08c2.81,1.02,4.95.43,7.29-.74.93.92.92,2.29-.06,3.39-3.83,1.45-7.56,1.33-11.05-.87-3.37-3.93-3.1-9.75.3-13.5,2.35-1.81,4.89-1.67,8.01-1.57,3.4,1.87,5.13,5.77,4.26,9.48l-10.35.45c-.36,1.53.3,2.3,1.59,3.35ZM332.32,103.26c-.49-2.62-1.96-3.64-3.3-3.42-1.89.03-3.6.7-3.82,3.26,2.34.87,4.65.91,7.13.16Z"/>
        <path class="cls-2" d="M302.01,110.44c-1.61,2.23-4.31,3.31-7.39,3.22-5.33-.09-9.1-4.53-8.02-9.8.28-3.14,2.11-5.37,5.03-6.63,2.87-.64,5.97-.85,8.13.33,3.87,3.56,4.76,8.46,2.25,12.88ZM298.47,108.11c.62-2.37.72-4.24-.02-6.15-1.32-1.58-2.81-2.29-4.33-1.85-1.3.2-2.37,1.04-2.96,2.43-.69,2-.6,4.14.53,6.27,1.01,1.28,2.25,1.8,3.43,1.72,1.17-.02,2.3-.76,3.34-2.42Z"/>
        <path class="cls-2" d="M366.25,110.61c1.89.12,3.6-.36,5.28-1.08.56.29.92.73.96.82.14,1.03-.16,1.78-1.02,2.46-3.11,1.19-6.17,1.11-9.03.02-2.84-1.49-4.31-4.5-4.02-7.99-.04-3.34,1.52-6.15,3.86-7.98l7.5-.02c2.68,2.2,4.42,5.94,3.36,9.45l-10.68.42c.19,2.45,1.87,3.47,3.79,3.9ZM369.69,103.04c-.62-2.3-2.04-3.37-3.71-3.2-1.63-.18-3.06.98-3.62,2.98.94,1.08,1.88,1.02,3.12.81,1.62.12,2.93.33,4.21-.6Z"/>
        <path class="cls-2" d="M351.07,98.5c1.01-1.78,3.13-1.85,4.42-.86l-5.55,15.03c-1.6.82-3.4.93-5.22.21l-5.42-15.17c.8-.74,1.93-.53,3.73-.91l4.49,10.93c2.05-3.08,2.19-5.85,3.55-9.22Z"/>
        <path class="cls-2" d="M279.67,101.82l.02,10.9c-1.41.83-2.68.87-4.06-.03v-10.88c-.25-1.06-.79-1.72-1.97-1.5-1.43-.8-1.58-2.66-.25-3.62,1.35.66,2.16.22,2.35-.76-.43-2.43.36-4.29,2.02-6.01,1.88-.88,3.55-.63,5.53-.43.56.99.65,2.5-.46,3.3-1.92-.66-2.51.34-2.24,1.84-.81.52-.8,1.14-.55,1.75.07.34.61.67,1.57.62,1.32-.09,1.98.51,2.01,1.34.33.84-.21,1.28-1.25,2.53-.95-.48-1.92-.4-2.73.93Z"/>
        <path class="cls-2" d="M386.94,100.79c-3.16-.3-4.4,1.68-4.52,4.05l-.22,8.02c-1.25.65-2.5.51-4.01.12l-.14-15.15c1.04-1.16,2.84-1.37,4.2-.22,1.39.07,2.51-.63,4.12-.93,1.5.75,1.81,2.42.57,4.11Z"/>
        <path class="cls-2" d="M317.34,100.89c-2.3-.26-4.14.11-4.66,2.19-.73,2.78-.76,5.6-.53,9-.67,1.67-2.68,1.52-4.15.7l-.06-14.89c.6-.8,1.46-.86,2.16-.82.98-.07,1.49.78,2.08,1.75,1.42-1.27,2.53-1.97,4.36-2.03,1.08.62,1.34,1.56.8,4.11Z"/>
      </g>
    </g>
  </g>
</svg>