<?xml version="1.0" encoding="UTF-8"?>
<svg id="Layer_2" data-name="Layer 2" xmlns="http://www.w3.org/2000/svg" viewBox="0 0 562 540.18">
  <defs>
    <style>
      .cls-1 {
        fill: #010101;
      }

      .cls-2 {
        fill: #d4d4d4;
      }
    </style>
  </defs>
  <g id="Layer_1-2" data-name="Layer 1">
    <g>
      <g>
        <path class="cls-1" d="M342.39,420.22v47.91c-1.31.22-3.04-.76-4.3.88-2.14.26-4.19.06-6.51.1-.22-.56-.25-.84-.17-.99v-22.96c-.12-1.51.27-2.95-.22-5.1-2.05,1.33-2.94,3.48-2.78,6.12-1.42,1.51-.89,3.2-1.14,4.57-1.15,1.68-1.64,3.43-1.82,5.42l-2.19,6.93c.47,1.05.38,1.84-.83,2.25.17,1.39-.14,2.47-1.27,3.74l-9.41-.02c-1.32-1.2-1.77-2.19-.94-4.09-1.01-.82-1.65-1.46-1.36-2.85.21-1.03.24-1.78-1.05-2.24.49-1.39.1-2.6-1.26-3.51.9-1.94.29-3.04-.95-4.01.77-1.59-.21-2.21-1.02-3,.87-1.9.3-3.04-1.01-3.98.82-1.94.33-3.03-1.01-4.03.67-1.28.43-1.91-.17-2.18-.55-.26-1.19-.07-1.5.49-.3.51-.07,1.18.64,1.73l.34,8.75v17.93s-11.91-.02-11.91-.02l.04-47.81,17.02-.11c2.06.8,2.22,2.79,1.6,5.15.87,1.2,1.68,2.29,1.02,4.04,1.3,1.34,1.32,3,1.26,4.48l1.87,3.7c.35,1.25-.7,2.9,1.07,3.99-.51,1.88.57,3.62,1.08,6.03-.52,2.34,2.38,2.33,1.95-.05.32-1.66,1.84-2.57.65-4.53,1.33-.95,1.94-2.06,1-3.98,1.33-.96,1.91-2.08,1.02-3.97,1.19-1.04,1.88-2.13,1.02-3.98.73-.88,1.9-1.41,1.07-3.07,1.13-.95,1.82-2.04.88-3.97,1.42-.91,1.6-2.09,1.34-3.79h17.95Z"/>
        <path class="cls-1" d="M560.9,421.27l.1,46.87c-1.08-.33-1.77-.14-2.22.99h-8.52c-.55-1.13-1.15-1.64-2.09-2.19-.61-2.17-1.64-4.06-3.15-5.42-.61-1.56-1.02-3.01-2.32-4.07-.82-1.81-2.01-3.25-2.61-5.46-1.2-1.58-2.79-2.99-3.17-5.45-1.46-.97-1.76-2.37-2.74-3.45l-.55,24.53c-1.01.76-2.18.46-3.21.6-1.13,1.57-2.76.89-4.36.83-1.68.45-2.77.11-3.97-1.19l.03-47.48,10.97-.11c2.53,1.11,3.25,3.44,4,5.89,1.82.63,1.67,2.2,2.72,3.34.45,2.17,1.63,4.06,3.37,5.42-.02,1.72.62,2.69,1.71,3.54.26,2.25,1.64,4,3.29,5.48-.19,1.41.8,2.02,1.8,2.24l.04-25.89,8.99.02c1.05,0,1.72.35,1.87.98Z"/>
        <path class="cls-1" d="M188.66,463.15v-42.92l29.42.14c5.47,2.44,9.15,5.97,10.22,11.95.65,3.2.12,6.49.29,9.62-2.01,1.2-2.99,2.56-3.51,4.75-2.13.07-2.66,1.88-5.02,2.61-.55,1.2.76,2.98,2.4,4.04-.07,1.12.58,1.7,1.22,2.69.12,1.23.74,1.99,1.2,2.83.46,1.75,1.71,2.83,2.81,4.03l1.99,5.1c-1.17.17-1.91-.11-2.31,1.11l-9.91.14c-1.07-.81-2.37-1.69-2.8-3.09-1.38-2.57-2.58-4.79-3.59-7.36-1.29-.46-1.49-1.37-1.59-2.36-1.35-1.42-1.56-3.08-2.51-4.45l-6.38.31-.46,15.79-11.38.02-.07-4.98ZM215.58,438.94v-6.3c-1.21-1.13-1.88-2.05-3.07-2.64-3.96-.04-7.38-.16-11.8.27-.21,3.77-.25,7.06-.02,10.93h12.5c.89-.99,1.32-1.61,2.38-2.26Z"/>
        <path class="cls-1" d="M269.72,468.36c-1.75-.58-2.9-.32-4.13.79-1.72-.38-2.89.09-3.84,1.08-2.41-.69-4.11-.51-6.27.06-2.44-.62-4.34-1.89-7.13-2.22-1.14-.09-1.17-2.16-3.01-1.78-2.04-1.88-4.13-3.8-5.85-5.97-.69-2.18-1.67-3.65-2.8-5.56-.4-1.18.65-2.89-1.05-3.93l-.03-14.35c1.55-.71.89-2.02,1.13-2.91,1.2-1.87,1.97-3.4,2.76-5.55,1.67-2.19,3.89-3.98,5.81-6,1.5.3,1.83-.78,2.5-1.84,1.39.57,2.49-.31,3.54-.96l12.23-.05c1.77.97,3.71.56,5.3,1.91,1.87-.38,3.02,1.1,4.45,2.15,1.99.73,3.07,2.48,4.32,3.79-.21,1.41.97,1.72,1.63,2.41l2.31,6.75c-.39,1.25.15,1.98.93,2.95l-.11,10.08c-1.03,1.24-1.08,2.43-.84,4.01-1.2,1.23-1.41,2.38-.84,4.14-1.38,1.71-3.18,2.81-4.33,4.65.07,1.2-.83,2.1-2.03,2.03-1.84,1.15-2.93,2.96-4.65,4.33ZM268.8,452.03c-.39-2.39,1.59-3.13.48-5.02,1.85-1.57,1.87-4.09-.02-5.68.81-2.18.19-3.49-.72-5.25-.81-1.41-2.22-2.49-2.64-3.96-1.93.08-2-1.68-3.2-2-3.01.14-5.27.22-8.34-.08-1.75,1.56-3.5,3.11-5,5.07-.82,1.62-.57,3.1-1.67,4.4l-.11,7.45c1.2.41,1.24,1.19.87,2.22.22,2.25,1.12,3.99,3.02,5.16-.04,2.25,1.76,2.53,3.48,3.66l7.83.41c1.91-2.11,4.29-3.8,6.03-6.37Z"/>
        <path class="cls-1" d="M485.39,470.12c-.49-1.07-1.22-1.21-2.31-.81-1.52-.88-2.69-1.65-4.29-2.19-.95-.35-1.09-2.02-2.81-1.84-1.35-1.22-3.16-2.25-3.8-4.29-1.06-1.45-2.57-2.57-2.05-4.51-1.31-.95-1.21-2.22-2.18-3.22.38-1.75.88-3.34-.74-4.41l-.03-10.37c1.48-.73,1.13-1.93.81-3.33,1.41-2.11,2.28-4.03,3.17-6.35,1.17-.96,2.14-2.12,2.5-4.04,2.14-.58,3.57-1.48,4.73-3.51.81.12,1.55.23,1.99-1.06,1.4.51,2.51-.26,3.58-1.01l12.17.08c1.18-.03,1.89.81,2.97.95l5.37,1.97c2.23,2.13,4.61,4.38,6.76,6.92.1,1.42,1.37,1.82.72,3.15,1.7,3.13,2.31,6.4,2.22,9.59,1.62,2.72.65,5.47-.15,8.27-.02,2.05-1.18,3.6-1.63,5.31-1.62,3.81-3.64,7.1-7.04,9.92-1.83,1.33-4,1.92-6.03,2.99-.42.96-1.16.87-2.19.76-1.06-.04-1.82-.2-2.24,1.05l-9.5-.02ZM490.27,457.97c.64.31.96.83,1.35,1.19.4-.35.72-1.15,1.44-.88,5.07-1.03,7.63-4.78,8.7-9.45.77-3.02.18-6.2.37-9.4-1.26-.42-1.34-1.14-.75-2.35-.74-1.16-1.98-1.52-2.22-2.72-1.52-3.3-5.26-4.75-9.04-4.05-2.9-.54-5.72.25-7.08,2.78.04,1.55-1.67,1.77-2.02,2.97.38,1.44-.92,1.97-.77,3.18-.88,2.03-1.35,3.65-1.18,6.09.65,1.12,1.53,2.23.85,3.98.95,1.14,1.34,2.31,1.29,3.58,1.94,1.59,2.97,3.5,5.15,4.29,1.09.7,2.08,1.45,3.91.79Z"/>
        <path class="cls-1" d="M373.83,469.79l-4.69.54c-.98-1.07-2.22-1.52-3.4-1.32-1.95-1.41-3.67-1.98-5.69-2.86-1.64-1.42-3.38-2.99-4.82-4.86.23-1.73-1.57-1.81-1.81-2.87l-1.91-4.65c-.32-1.18.61-2.91-1.13-3.99.05-4.07.35-8.16-.05-12.29,1.53-.8,1.06-2.05,1.19-2.93,1.77-2.57,2.62-4.94,3.84-7.63,1.05-1.35,2.29-2.8,3.89-3.82l3.05-1.82,4.38-1.91c2.73-.3,5.58-.14,8.64-.12,4.42-.58,8.03,1.3,12.11,2.93,2.11,1.73,4.39,3.56,5.87,6.13,1.63,2.4,3.96,4.49,2.76,7.98.61.93,1.3,1.67,1.24,2.87l.04,9.02c-.1,4.45-2.21,8.04-4.05,12.03-1.22,1.83-2.98,3.34-4.9,4.82-1.39.3-1.65,1.78-3.13,1.92-1.32.49-1.71,1.74-2.8,2.37-1.81-.35-3.35-.75-4.44.66-1.1.4-2.27-.17-4.2-.21ZM382.66,454.01c.27-1.47,1.54-1.62,1.92-2.8-.54-1.12-.49-1.86.74-2.27l-.09-8.44-1.75-3.55c-1-4.15-4.54-7.45-9.14-6.65-2.27-.84-3.75.88-6.23.87-3.19,2.07-4.8,5.95-5,9.66-1.24,2.01-1.3,4.71.04,6.71.07,1.54.21,3.02,1.18,4.79l5.11,5.78,6.96.24c2.41-.72,4.84-1.81,6.25-4.34Z"/>
        <path class="cls-1" d="M168.7,452.14h-14.02c-.84-.03-1.1.6-.97,1.02-.33,4.83-.24,9.59-.06,14.9-1,.02-1.73-.17-2.14,1.07l-10.67-.07.13-48.71,30.39-.1c1.36,1.15,2.68,1.58,4.11,2.17,1.3,1.83,2.9,3,4.46,4.54-.64,1.49-.1,2.22.8,3.2.08,1.67-.76,3.25.88,4.37-.15,1.42-.18,2.89,0,4.32-1.56,1.13-1,2.66-.69,4.52l-6.42,6.49c-1.18-.13-1.7.94-2.63,1.34-1.48.18-2.21,1.08-3.16.94ZM168.57,436.2c.73-1.71-.32-2.53-.84-4.26-.82-.93-2.46-1.46-3.94-2.13-1.15.56-1.73.59-2.56-.58-1.08,1.29-3.22,1.73-5.02.05-.41.67-1.18.94-2.55,1.14l.08,12.7,9.62-.03c1.48-1.4,3.14-1.57,4.7-2.56.98-1.25.79-2.71.5-4.33Z"/>
        <path class="cls-1" d="M211.72,539.14c-1.46-.32-2.65-.58-3.38.83h-8.42c-.72-1.47-1.93-1.18-3.32-.78-2.18-1.28-3.99-2.36-6.28-3.16l-6.43-6.25-3.06-8.11-.13-15.3c1.41-.8.81-2.07,1.15-2.95,1.32-1.92,1.93-3.66,2.81-5.66,1.37-1.7,3.03-3.26,4.66-4.74,1.59.1,1.93-1.7,3.21-1.85,2.07-.49,3.78-.9,5.49-1.91l13.3-.16c.72,1.56,2.03.86,2.93,1.15l4.36,2.74c2.44,1.6,4.14,3.89,6.15,5.83-.03,1.38.68,2.08,1.09,3l1.62,3.52.26,6.39c.96,1.78.94,3.8,0,5.58l-.22,5.43c-1.39.73-1.15,1.89-.71,3.41-.55,1.17-2.21,1.36-2.07,3.06l-6.94,6.87c-2.5.55-4.18,1.78-6.1,3.04ZM212.53,531.98l5.18-5.75c-.06-1.39,1.62-1.74.64-3.36,1.58-1.25,1.19-3.01,1.48-4.4,1.92-3.34.76-6.97-.29-10.32-.09-2.33-1.28-3.95-1.78-6.25-1.57-1.73-3.06-3.64-4.96-4.94-1.37-.01-1.76-1.31-3.19-.92-1.03.23-1.79.24-2.19-.92l-5.95-.26c-1.02,1.15-2.11,1.73-4.03.93-1.04,1.47-3.09,1.7-3.71,3.38-1.74,2.12-4.12,3.73-4.13,6.93.22.58-.18.91-.98,1.2l.12,13.35c1.63,1.55.54,3.78,2.33,5.03.84,3.02,3.29,4.58,5.89,6.15,2.71,2.44,6.15,2.18,9.85,2.26,1.69-1.15,3.43-2.4,5.72-2.11Z"/>
        <path class="cls-1" d="M263.53,539.73c-3.03.65-5.9.1-8.71.27-.73-1.53-1.92-1.2-3.32-.82-2.1-1.42-4.02-2.26-6.26-3.16-2-1.73-3.96-3.69-5.69-5.69-.87-2-1.46-3.79-2.88-5.76-.37-1.14.69-2.86-1.06-3.87l-.04-13.36c1.49-.73,1.31-1.9.72-3.46.88-.77,1.2-1.66,1.52-2.51.61-1.75,1.86-2.77,2.81-4.19.35-1.54,1.59-2.59,2.96-3.12l3.82-2.95c2.08-.45,3.85-.74,5.51-1.87l10.61-.15c1.18.16,1.97.6,2.91,1.2,3.08-.8,4.91,1.32,7.01,2.95,2.65,1.45,4.37,3.66,6.18,5.65.08,2.19,1.94,3.11,1.8,5.25.56,1.25,1.6,2.31.82,4.03,1.44,2.98,1.66,6.17.45,9.18l-.38,6.32-3.57,6.62c-2.17,1.74-3.51,4.33-6.33,5.59-1.53,1.16-2.63,2.68-4.59,2.15-1.01,1.95-2.98-.01-4.3,1.69ZM252.84,533l12.27-.12c5.48-2.95,8.32-7.53,10.15-13.26.58-3.56.32-7.54.03-11.17-1.66-4.59-3.5-8.83-7.68-11.39-1.64-.87-3.19-1.14-4.66-1.13-3.34-2.17-6.82-.63-10.54.18-2.16,1.21-3.46,3.35-5.69,5.07l-.27,2.67c-2.15,1.47-3.04,3.63-2.94,6.25-1.23,1.98-1.68,4.49-.05,6.39.04,1.47,0,3.11,1.08,4.45.16,3.83,2,7.21,4.85,9.18,1.76.22,2.3,1.66,3.45,2.88Z"/>
        <path class="cls-1" d="M358.53,536.55c-1.46.83-1.97,1.93-2.95,2.72-1.9-.82-3.01-.16-4.01.91l-7.88-.24c-1.14-1.49-2.57-1.34-4.46-.62-.94-1.38-2.23-1.46-3.45-1.39-1.38-1.09-2.82-1.24-3.52-2.75-2.54-1.53-3.2-3.98-4.61-6.51-.44-2.05-.16-4.13-.2-6.59h7c-.34,1.69,0,2.77,1.16,3.76-.7,2.02.8,2.83,2.02,3.8,1.07,1.67,2.41,2.37,4.11,3.29,3.21.2,6.68.15,10.07-.03,3.11-1.53,4.98-3.32,6.32-6.26,1.05-2.24-.54-4.31-1.72-6.11-1.7-1.63-4.05-2.91-6.72-2.48-.75-1.52-1.94-1.33-3.35-.75-1.84-.82-3.58-1.01-5.28-2.05-1.95-.06-3.83-1.06-5.53-2.3-4.22-1.05-6.55-4.65-6.16-8.52-1.53-1.29-1.46-3.41-.08-4.67.04-1.96.79-3.97,2.41-5.42,2.24-2.65,5.14-4.7,8.62-5.25l11.84.09c.42,1.08,1.17,1.1,2.2.87,1.43-.39,1.82.9,3.17.92l6.14,5.87c-.69,1.34-.5,2.03.66,2.43.02,1.58.13,3.04-.09,4.57-1.45,1.58-3.43,1.7-4.85.75-1.28-1.01-2.48-2.23-2.01-4.42-2.14-1.38-3.13-2.9-4.81-4.37-1.26.63-2,.49-2.41-.75l-8.43.15c-2.16.95-3.4,2.24-5.17,4.07-.23,1.47-.32,3.15.07,4.57,2.46,3.36,5.77,4.8,9.39,4.19,1.49,1.76,3.3,2.13,5.38,2.08l4.34,1.87c2.39-.13,5.06.52,6.7,2.83,1.73.89,2.17,2.33,1.96,3.89,1.77,1.08.58,2.75,1.13,3.97,1.2,1.29,1.12,3.37.03,4.64-.19,1.22-.54,2.43-1.28,3.61-.92,2.82-2.35,5.1-5.75,5.6Z"/>
        <path class="cls-1" d="M426.24,430.19c-.16-.08-.46-.03-.99.24v37.71c-.43-.18-.88.07-1.22.99l-9.51-.03c-1.1-1.25-1.29-2.43-1.22-3.96l-.04-33.82-10.71-.15c-.42-.87-1.26-1.08-1.29-1.86l.02-6.1c-.02-1.27.5-2.1,1.02-2.53.65-.86,1.79-.05,2.97-.43l31.66.1c.53,3.46.22,6.38.25,9.83h-10.95Z"/>
        <path class="cls-1" d="M447.21,468.14v-47.91h10.93s.07,7.76.07,7.76c1.15.4,1.34,1.23.71,2.23l.28,37.82c-1.4.28-2.56-.47-3.3,1.07l-8.52.03c-.23-.55-.26-.84-.18-.99Z"/>
        <path class="cls-1" d="M154.73,536.01v-37.93c.17-.73-.7-.96-1.28-1.97l-12.53-.17c.34-.4-.01-.97-.05-1.83-.14-1.83.13-3.45,1.75-4.11l8.13.36,18.99-.05c1.59,1,3.1.88,5.08.7,1,1.57.76,3.09.4,4.67-.92.54-2.11-.04-2.82,1.35l-10.67.1v40.74c-1.07.13-1.81-.13-2.21,1.1h-4.7s-.08-2.96-.08-2.96Z"/>
        <path class="cls-1" d="M297.47,491.09v39.93c-.08.89.57,1.15,1,.99l21.46.16c.44,2.15.7,4-.25,5.9-1.34-.24-2.07-.27-2.5.93h-24.44s-1.23-1.96-1.23-1.96l-.03-5.03v-36.93l.06-4.95h5.77c.21.53.24.81.16.96Z"/>
        <path class="cls-2" d="M447.21,468.14c-.16.09-.46.05-1-.23v-47.45c.53-.28.83-.33,1-.23v47.91Z"/>
        <path class="cls-2" d="M342.39,468.14v-47.91c.43-.16,1.08.09,1.01,1v46.68c-.54.28-.85.33-1.01.23Z"/>
        <path class="cls-2" d="M561,468.14l-.1-46.87c.19-.13.52-.13,1.1.18v46.46c-.53.28-.84.32-1,.23Z"/>
        <path class="cls-2" d="M188.66,463.15c-.43.16-1.07-.1-1.01-.99l.02-41.7c.53-.28.83-.32.99-.23v42.92Z"/>
        <path class="cls-2" d="M298.47,532.02c-.42.16-1.07-.1-1.01-.99v-39.93c2.34,13.25.34,27.2,1.01,40.92Z"/>
        <path class="cls-2" d="M425.24,468.14v-37.71c.54-.27.84-.32,1-.24v37.72c-.54.27-.84.31-1,.22Z"/>
        <path class="cls-2" d="M291.48,532.02c-1.66-11.98-1.66-24.96,0-36.93v36.93Z"/>
        <path class="cls-2" d="M154.73,536.01c-2.48-11.74-.04-24.2-1.22-36.68.78-.3,1.12-.35,1.22-.25v36.93Z"/>
        <path class="cls-2" d="M331.41,468.14c-2.47-7.06-.07-14.95-1.2-22.72.79-.29,1.11-.33,1.2-.24v22.96Z"/>
        <path class="cls-2" d="M168.7,452.14c-4.52,2.41-10.02.32-15,1.02-.13-.42.13-1.05.97-1.02h14.02Z"/>
        <path class="cls-2" d="M154.73,498.08c-.43.18-.88-.09-1.22-.98l-12.59-.03c-.26-.6-.19-.92,0-1.12l12.53.17c.58,1,1.45,1.24,1.28,1.97Z"/>
      </g>
      <g>
        <rect class="cls-2" y="2" width="1" height="416.23"/>
        <path class="cls-1" d="M167.7,280.48h-25.95c-1.88-.25-1.18,2.7-3.23,2.85l-70.29,70.13c-.34,1.52-.69,2.01-2.07,2.11l-14.18,14.01c.03.8.24,2.05-1.41,1.48l-14.47,14.41c.01,1.45-.52,1.92-1.91,2.04L1.47,420.28c-.89-.9-.41-1.56-.47-2.05V2C1.05,1.5.7.92,1.29,0h177.04c.59,1.19,1.3,1.15,2.33.97,2.32.12,4.39-.37,6.3.91l6.4.23c1.05,1.62,2.73.58,3.88,1.05,1.67,1.15,3.44,1.64,5.44,1.75l8.23,2.65c1.48,1.44,3.38,1.08,5.02,2.36,1.93-.54,3.07,1.1,4.43,2.02l11.52,5c1.02.37,1.14,2.09,2.88,1.87,1.34,1.4,2.93,2.3,4.55,3.44,1.59.65,2.71,1.84,4.22,2.74l5.14,3.91,7.74,7.09c1.98.65,3.04,2.38,4.26,3.82-.48,1.71,1.98.59,1.7,1.98l6.12,7.11,4.17,5.85,6.99,9.86c1.47,1.83,2.08,3.99,3.02,6.22,1.8.79,1.95,2.29,2,3.61,1.93,3.52,3.44,6.72,4.91,10.4.55,2.05,1.87,3.72,2.12,5.7.81,1.69,1.21,3.36,1.79,5.35.36,1.32,1.5,2.29.77,4.08.91,1.12,1.66,2.22.99,3.99.92,1.13,1.65,2.23,1.01,3.98.91,1.14,1.53,2.27,1.02,3.96,1.04,1.51,1.33,3.02,1.2,4.92-.16,1.01-.21,1.79.95,2.2l.06,8.49c1.24.46.97,1.25.92,2.25v21.63c-1.64,1.08-.75,2.73-.93,4.32-.14,1.95.55,3.79-.92,5.35-.32,2.24.44,4.7-.97,6.96-.27,1.61.25,3.4-.98,4.94-.32,1.14.02,2.27-.16,3.51-1.16.39-1.17,1.17-.84,2.21l-3.87,11.28c-.19,1.23-.7,2.31-1.23,3.74-.35,1.01-1.35,1.58-1.05,2.97-1.28,2.07-1.91,3.9-2.95,6.05-.32,1.02-1.62,1.47-.74,3.19-1.37,1.14-2.42,2.29-2.97,3.99-1.04,1.67-1.43,3.62-3.06,4.97-.67,1.8-1.47,3.57-3.04,4.99-.4,1.14-.73,2.24-2.08,2.91-.01,1.68-1.66,2.28-2.06,3.89-.98,2.09-3.47,2.88-4.01,5.23l-6.09,6.5c-.02,1.64-1.51,2.05-2.25,2.82-.97,1.13-1.81,2.6-3.75,3.11l-7.83,7.1-4.96,4.19-3.16,1.72c-1.15.54-1.47,1.94-3.02,1.96-1.77,1.6-3.44,2.74-5.79,3.34.13,1.62-.45,2.37-2.13,1.75l-8.93,4.34c-.83,1.68-2.14,2.33-4.11,1.59-1.79,1.28-3.68,1.98-5.59,2.5l-11.2,4.02c-1.13-.7-1.89-.5-2.32.69-1.38.11-2.97-.69-4.1.91-1.55.31-3.53-.74-4.97.96l-7.33.27c-1.42,1.6-3.43.74-5.3.64l-8,.21Z"/>
        <path class="cls-2" d="M167.7,280.48c.09.16.05.46-.21.99l-24.78.03c-.86.05-1.13-.59-.96-1.01h25.95Z"/>
      </g>
    </g>
  </g>
</svg>