<?xml version="1.0" encoding="UTF-8"?>
<svg id="Layer_2" data-name="Layer 2" xmlns="http://www.w3.org/2000/svg" viewBox="0 0 112.66 113.33">
  <defs>
    <style>
      .cls-1 {
        fill: #292262;
      }

      .cls-2 {
        fill: #ecc229;
      }
    </style>
  </defs>
  <g id="Layer_1-2" data-name="Layer 1">
    <g>
      <g>
        <path class="cls-1" d="M45.54,113.33l-30.45-.25L.09,97.58l-.09-35.36,14.16-13.04c10.44,1.23,20.59,2.13,30.94,4.18l11.29,12.69c1.53,10.58,3.28,20.71,4.15,31.66l-15,15.63Z"/>
        <path class="cls-1" d="M98.01,111.15c-6.44.7-12.17.19-18.19-.12l-14.14-15.62-3.37-27.13,7.16-8.53,21.25,7.79c7.69,8.88,12.47,19.65,15.37,31l-8.09,12.61Z"/>
        <g>
          <path class="cls-1" d="M43.05,23.73c2,2.95,10.37,20.82-.51,23.36l-29.12-3.33L.84,34.1c-.38-7.67-.21-14.66.25-22.48,4.01-1.48,7.54-5.33,11.9-5.98,19.63,5.32,20.08,3.38,30.06,18.09Z"/>
          <path class="cls-1" d="M85.44,60.24c-17.49-7.48-19.48-3.36-31.89-20.99-2.66-3.78-2.59-8.54-4.53-12.65,2-.77,5.14-3.23,7.06-2.01,12.13,7.69,21.97,18.14,29.52,30.21.94,1.5,1.37,2.22-.16,5.44Z"/>
        </g>
      </g>
      <path class="cls-2" d="M112.05,16.94l-26.67,27.16c-2.56-1.87-4.57-3.84-5.58-6.88L111.31,5.02c2.15,3.52,1.09,7.47.74,11.91Z"/>
      <path class="cls-2" d="M74.34,31.52c-3.26-.55-4.66-3.04-7.17-5.31L92.39.84c3.09-1.57,8.11-.42,11.71.02l-29.76,30.67Z"/>
      <path class="cls-2" d="M95.46,57.6c-3.24-1.42-4.22-4.5-5.39-7.17l22.01-22.16c.62,4.26.61,8.14.09,12.28l-16.7,17.05Z"/>
      <path class="cls-2" d="M61.17,21.2c-2.85-.82-4.67-2.63-7.52-5.09,11.33-9.92,12.05-19.05,27.03-15.22l-19.5,20.31Z"/>
      <path class="cls-2" d="M103.22,73.33c-2.33-2.55-3.06-5.2-4.25-8.3l13.17-12.9c.49,4.11.53,7.96.09,12.07l-9,9.12Z"/>
      <path class="cls-2" d="M46.47,11.15c-2.41,1.26-6.23-2.21-8.21-3.3C46.13-.01,44.01-.86,56.98.87c-3.18,3.63-5.92,7.65-10.52,10.28Z"/>
      <path class="cls-2" d="M109.7,91.04c-1.19-2.6-2.85-5.38-3.06-8.36-.19-2.64,2.97-4.57,5.28-5.92.64,5.07,2.04,9.83-2.22,14.28Z"/>
      <path class="cls-2" d="M33.61.53c-.51,1.67-2.21,3.89-4.03,3.77-2.86-.19-5.69-1.06-8.55-2.9,4.04-2.07,7.31-.92,12.58-.86Z"/>
    </g>
  </g>
</svg>