<?xml version="1.0" encoding="UTF-8"?>
<svg id="Layer_2" data-name="Layer 2" xmlns="http://www.w3.org/2000/svg" viewBox="0 0 1279.28 424">
  <defs>
    <style>
      .cls-1 {
        fill: #044ea2;
      }
    </style>
  </defs>
  <g id="Layer_1-2" data-name="Layer 1">
    <path class="cls-1" d="M1095.13,269.42c6.88-6.89,10.35-16.54,10.36-26.36l.06-39.89-46.69-.05-.06,18.9,13.41.54.11,20.91c.03,4.85-2.29,9.19-6.72,11.17-3.87,1.73-8.14,1.87-12.23.73-5.5-1.54-8.64-6.2-8.64-11.98l.06-64.72c0-8.07,5.63-13.22,13.37-13.34,7.34-.12,13.45,4.12,13.72,11.69l.36,10.26,32.9.04c1.87-18.43-3.7-35.79-22.67-41.99-23.16-7.58-64.03-5.91-69.69,25.63-.88,4.9-1.14,9.57-1.13,14.67l.16,58.11c.04,15.46,8.8,27.57,23.49,32.55,12.05,4.09,24.71,4.21,37.87,2.93-.34.97-1.36,1.08-2.6,1.59-24.65,10.21-48.68,20.23-74.04,28.69l-58.55,19.51c-97.96,32.64-279.28,70.38-381.29,80.84l-9.22.95c-2.65.27-5.27.72-7.94,1.01l-9.01.98-8.98.99-10.88,1.07-9.11.91-10.86,1.06-11,1.02-13.03.97-13,1.02c-4.77.37-9.21,1-13.99,1.1l-11.92.25c-3.7.08-7.23,1.19-11.06.85-4.24-.38-8.03.32-12.08.76-7.3.79-21.09-.82-23.9,1.25h-95.93c.15-.49-.33-.9-1.05-.91l-18.87-.27c-3.34-.05-6.54-1.42-10.04-.79-.79.14-22.21-1.52-24.98-1.78l-10.97-1.03-10.12-.91-9.97-1.09c-53.03-5.78-149.37-23.3-184.69-66.15-6.09-7.39-10.97-15.48-12.85-25.14-.23-1.18-.31-2.32-1.22-2.7v-18.96c2.63-8.24,4.94-16.63,9.37-24.52,7.38-13.15,20.53-28.29,31.72-38.26l10.55-9.41c16.03-14.29,58.15-41.2,77.74-51.04l47.14-23.7c-.43.22,16.17-7.58,14.41-5.58-6.71,6.69-9.48,16.15-9.89,25.68-1.36,32.04,32.89,38.15,54.69,55.09,7.2,5.6,9.34,15.74,3.03,22.84-2.86,3.22-7.83,3.44-11.91,3.13-14.61-1.12-10.31-16.2-11.46-24.56l-34.93.05c-2.06,19.41,2.77,37.86,23.15,44.61,22.03,7.31,62.75,6.27,70.15-21.01,2.55-9.38,2.89-19.27.6-28.69-5.11-21.03-39.32-30.84-54.02-42.71-3.69-2.99-5.61-6.78-5.41-11.5.3-6.84,5.12-11.12,11.89-11.24s12.49,3.99,12.75,11.23c.11,2.87-.25,5.67.35,8.9h32.29c2.13-17.63-2.12-33.19-21.08-39.28-11.96-3.84-24.43-3.68-37.3-2.4.66-1.72,2.55-2.02,4.48-2.81,22.15-9.05,43.72-17.76,66.45-25.34l53.3-17.77c50.84-16.95,102.49-29.86,154.98-41.74,77.29-17.49,154.82-30.99,233.14-40.48,3.53-.29,5.99-.72,9.15-1.07l8.98-.99,8.98-1.01,10-.99,9.11-.93,11.89-1.09,9.08-.92,13-1.02,12.99-1c3.06-.23,24.08-1.94,24.99-1.77,3.5.67,6.71-.77,10.05-.8l24.86-.24,5.04-.9,23.94-.07L912.39,0h62.74s4.16.97,4.16.97l25.87.03,5.04.91,20.94.23c3.02.03,5.86,1.47,9.04.83,1.26-.25,17.92,1.56,20.97,1.83l8.47.73c53.71,4.63,161.28,23.54,196.27,68.45,17.38,22.32,16.87,45.11,4.02,69.47-5.6,10.62-13.42,19.87-21.47,28.53-2.85,3.06-4.9,6.15-8.54,8.6-3.43,2.31-5.96,5.91-9.24,8.6-31.92,26.17-60.76,43.47-97.34,62.36l-30.18,14.8c-2.72,1.33-5.51,2.21-8.02,3.07ZM704.77,250.86c1.94-17.53.64-28.15-13.25-39.36s-30.06-16.26-40.93-24.98c-3.84-3.08-5.76-7.02-5.37-11.93.55-6.85,5.57-10.67,12.32-10.57s11.58,3.89,11.94,10.67c.16,2.89-.12,5.73.3,9.05l32.1.14c2.32-16.62-2.21-32.91-20.13-38.58-19.73-6.24-56.06-6.02-66.37,16.02-4.54,9.71-4.95,20.94-1.5,30.95,6.39,18.57,36.43,27.73,52.32,40.49,6.89,5.53,8.9,16.06,2.07,22.53-4.13,3.91-11.26,3.54-16.07,1.44-9.31-4.06-5.06-15.77-6.62-22.88l-34.4-.05c-2.36,18.7,2.45,37.45,22.82,44.17,23.55,7.77,67.08,6.24,70.77-27.09ZM795.66,145.26l-.09,100.11c0,7.61-6,12.31-13.21,12.18s-12.69-4.89-12.7-12.27l-.15-100.11-33.33.1.16,102.02c.84,14.92,9.35,26.53,23.61,30.76s30.49,4.39,45.27.04c14.14-4.16,23.57-16.07,23.62-31.05l.31-101.69-33.48-.09ZM369.61,277.3l35.36-.18-24.33-131.77h-58.88s-24.42,131.83-24.42,131.83l35.6-.1,18.48-120,18.18,120.22ZM544.16,158.7l1.35,118.49,32.91-.02-2.85-131.85-53.89.04-16.68,101.48-16.86-101.57-53.83.1-2.9,131.61,33.09.23.86-109.48c.02-2.95.03-5.33.8-8.19l1.53,8.2,20.53,109.51,33.44-.08,22.51-118.45ZM977.14,275.65l-.03-130.21-32.64-.03,1.38,103.53-30.82-103.54-49.04-.07.04,130.55,32.26.06-.95-106.14,32.88,106.19,46.93-.34Z"/>
  </g>
</svg>